<?xml version="1.0" encoding="UTF-8"?>
<!DOCTYPE svg PUBLIC "-//W3C//DTD SVG 1.1//EN" "http://www.w3.org/Graphics/SVG/1.1/DTD/svg11.dtd">
<svg version="1.1" id="Layer_1" xmlns="http://www.w3.org/2000/svg" xmlns:xlink="http://www.w3.org/1999/xlink" x="0px" y="0px" width="32px" height="32px" viewBox="0 0 32 32" enable-background="new 0 0 32 32" xml:space="preserve">
  <g id="main">
    <clipPath id="clip_mask">
      <path d="M16.5295,31.2991c-0.3381,-0.3949,-0.4838,-0.8824,-0.4109,-1.3738c0.0415,-0.3032,0.0764,-0.5797,0.1084,-0.8326c0.1873,-1.4801,0.3002,-2.3735,1.0657,-3.1282c0.6687,-0.6593,1.6761,-1.0238,3.6997,-1.7111c0.0102,-0.0047,0.0196,-0.0089,0.0295,-0.0134c-0.673,-1.2015,-1.0896,-2.687,-1.0896,-3.9026c0,-2.9591,1.4785,-4.3374,4.653,-4.3374c3.1477,0,4.6779,1.4188,4.6779,4.3374c0,1.1929,-0.4051,2.6696,-1.1221,3.9083l0.227,0.0914c1.8408,0.6284,2.7904,0.9932,3.4337,1.6349c0.0722,0.072,0.1369,0.1459,0.1981,0.2209V0H0v32h17.5077C16.988,31.7583,16.7102,31.5102,16.5295,31.2991z" fill-rule="evenodd"/>
    </clipPath>
    <g id="icon" clip-path="url(#clip_mask)">
      <path d="M28.2,28.5H1.8c-0.693,0,-1.3,-0.6,-1.3,-1.3V6.5h29v20.7C29.5,27.9,28.893,28.5,28.2,28.5z" fill-rule="evenodd" fill="none" stroke="#FFFFFF" stroke-width="1" stroke-miterlimit="1"/>
      <path d="M28.66,2H25v3h-4V2H10v3H6V2H1.3C0.5832,2,0,2.5832,0,3.3v3.7h30V3.3C30,2.5953,29.3863,2,28.66,2z" fill="#FFFFFF"/>
      <g>
        <rect x="7" width="2" height="4" fill="#FFFFFF"/>
        <rect x="22" width="2" height="4" fill="#FFFFFF"/>
      </g>
      <path d="M9,9v4H3v13h24V9H9zM9,25H4v-3h5V25zM9,21H4v-3h5V21zM9,17H4v-3h5V17zM15,25h-5v-3h5V25zM15,21h-5v-3h5V21zM15,17h-5v-3h5V17zM15,13h-5v-3h5V13zM20,25h-4v-3h4V25zM20,21h-4v-3h4V21zM20,17h-4v-3h4V17zM20,13h-4v-3h4V13zM26,25h-5v-3h5V25zM26,21h-5v-3h5V21zM26,17h-5v-3h5V17zM26,13h-5v-3h5V13z" fill="#FFFFFF"/>
    </g>
    <g id="overlay">
      <path d="M24.5854,17c-2.9775,0,-3.6531,1.2897,-3.6531,3.3374c0,2.0477,1.4648,5.4434,3.6367,5.4434c2.1719,0,3.6942,-3.3958,3.6942,-5.4434C28.2633,18.2897,27.53,17,24.5854,17zM24.5913,24.6912c-1.6419,0,-2.6535,-2.6653,-2.6535,-4.328c0,-0.1919,0.0151,-0.3751,0.0431,-0.5499c0.1472,-0.2391,0.2965,-0.5126,0.3934,-0.6455c0.8772,0.5393,3.6524,0.5102,4.4911,0c0.048,0.2031,0.1929,0.5199,0.3495,0.7345c0.0194,0.1478,0.0296,0.3014,0.0296,0.4609C27.2445,22.0259,26.2332,24.6912,24.5913,24.6912z" fill-rule="evenodd" fill="#FFFFFF"/>
      <path d="M31.9916,30.0678c-0.484,-3.5369,-0.1372,-3.4915,-4.2982,-4.904c-0.1241,-0.0573,-0.2221,-0.1025,-0.302,-0.1353c-1.0458,2.3637,-2.2789,3.6333,-2.8545,3.6333s-1.6507,-1.2762,-2.752,-3.6647c-0.0237,0.0096,-0.1857,0.0774,-0.4219,0.1865c-4.161,1.4125,-3.7706,1.3473,-4.2546,4.8842c-0.2982,1.9288,7.3973,1.9394,7.3973,1.9394S32.2898,31.9966,31.9916,30.0678z" fill-rule="evenodd" fill="#FFFFFF"/>
    </g>
  </g>
</svg>
