<?xml version="1.0" encoding="UTF-8"?>
<!DOCTYPE svg PUBLIC "-//W3C//DTD SVG 1.1//EN" "http://www.w3.org/Graphics/SVG/1.1/DTD/svg11.dtd">
<svg version="1.1" id="Layer_1" xmlns="http://www.w3.org/2000/svg" xmlns:xlink="http://www.w3.org/1999/xlink" x="0px" y="0px" width="24px" height="24px" viewBox="0 0 24 24" enable-background="new 0 0 24 24" xml:space="preserve">
  <g id="main">
    <clipPath id="clip_mask">
      <path d="M12.5,23l0.005,-6.0013C12.505,15.6215,13.6242,14.5,15,14.5h8c0.3555,0,0.6935,0.0751,1,0.2094V0H0v24h12.7094C12.5751,23.6935,12.5,23.3555,12.5,23z"/>
    </clipPath>
    <g id="icon" clip-path="url(#clip_mask)">
      <g id="transformed_icon" transform="translate(-1 -1)">
        <path d="M19.77,7.23l0.01,-0.01,-3.72,-3.72L15,4.56l2.11,2.11c-0.94,0.36,-1.61,1.26,-1.61,2.33,0,1.38,1.12,2.5,2.5,2.5,0.36,0,0.69,-0.08,1,-0.21v7.21c0,0.55,-0.45,1,-1,1s-1,-0.45,-1,-1V14c0,-1.1,-0.9,-2,-2,-2h-1V5c0,-1.1,-0.9,-2,-2,-2H6c-1.1,0,-2,0.9,-2,2v16h10v-7.5h1.5v5c0,1.38,1.12,2.5,2.5,2.5s2.5,-1.12,2.5,-2.5V9c0,-0.69,-0.28,-1.32,-0.73,-1.77zM12,10H6V5h6v5zm6,0c-0.55,0,-1,-0.45,-1,-1s0.45,-1,1,-1,1,0.45,1,1,-0.45,1,-1,1z" fill="#FFFFFF"/>
      </g>
    </g>
    <g id="overlay">
      <path d="M23,16h-8c-0.555,0,-0.995,0.445,-0.995,1L14,23c0,0.555,0.445,1,1,1h8c0.555,0,1,-0.445,1,-1v-6C24,16.445,23.555,16,23,16zM23,23h-8v-3h8V23zM23,18h-8v-1h8V18z" fill="#FFFFFF"/>
    </g>
  </g>
</svg>
