<?xml version="1.0" encoding="UTF-8"?>
<!DOCTYPE svg PUBLIC "-//W3C//DTD SVG 1.1//EN" "http://www.w3.org/Graphics/SVG/1.1/DTD/svg11.dtd">
<svg version="1.1" id="Layer_1" xmlns="http://www.w3.org/2000/svg" xmlns:xlink="http://www.w3.org/1999/xlink" x="0px" y="0px" width="16px" height="16px" viewBox="0 0 16 16" enable-background="new 0 0 16 16" xml:space="preserve">
  <g id="main">
    <clipPath id="clip_mask">
      <path d="M7,15.3732v-0.7464c0,-0.2937,0.0794,-0.5688,0.2161,-0.8069C6.5005,13.4989,6,12.7811,6,11.9473V8.0527C6,6.9208,6.9208,6,8.0527,6h6.8946c0.3851,0,0.7444,0.1085,1.0527,0.2938V0H0v16h7.1259C7.045,15.807,7,15.5953,7,15.3732z"/>
    </clipPath>
    <g id="icon" clip-path="url(#clip_mask)">
      <path d="M3,4v10.3176c0,0.3509,0.2904,0.6824,0.6413,0.6824h7.7102c0.3509,0,0.6485,-0.3315,0.6485,-0.6824V4H3z" fill="#797979"/>
      <path d="M7.8563,5.4483l-2.4232,4.6051c-0.0495,0.0891,0.0165,0.2115,0.1203,0.2115h1.6469l-0.2084,3.3843c-0.0076,0.1125,0.1474,0.1554,0.2014,0.0557l2.3554,-4.6386c0.0482,-0.089,-0.0179,-0.2115,-0.121,-0.2115H7.7778l0.255,-3.3553C8.041,5.4005,7.9048,5.361,7.8563,5.4483z" fill="#EAB765"/>
      <path d="M8.7,1.5H6.3c-0.1657,0,-0.3,-0.1343,-0.3,-0.3V0.3c0,-0.1657,0.1343,-0.3,0.3,-0.3h2.4c0.1657,0,0.3,0.1343,0.3,0.3v0.9C9,1.3657,8.8657,1.5,8.7,1.5z" fill="#797979"/>
      <path d="M11.2,1H3.4706C3.2859,1,3,1.2859,3,1.6353V4h9V1.6353C12,1.2859,11.7141,1,11.2,1z" fill="#EAB765"/>
    </g>
    <g id="overlay">
      <path d="M16,8.0527C16,7.4713,15.5287,7,14.9473,7H8.0527C7.4713,7,7,7.4713,7,8.0527v3.8946C7,12.5287,7.4713,13,8.0527,13h6.8946c0.5814,0,1.0527,-0.4713,1.0527,-1.0527V8.0527zM15,12H8V8h7V12z" fill="#9B59B6"/>
      <rect x="10.2143" y="12.4" width="2.5714" height="1.9" fill="#9B59B6"/>
      <path d="M15,14.6268c0,-0.3462,-0.2806,-0.6268,-0.6268,-0.6268H8.6268c-0.3462,0,-0.6268,0.2806,-0.6268,0.6268v0.7464c0,0.3462,0.2806,0.6268,0.6268,0.6268h5.7464c0.3462,0,0.6268,-0.2806,0.6268,-0.6268V14.6268zM11.4357,15.4H9.0571c-0.1768,0,-0.3214,-0.1732,-0.3214,-0.35s0.1446,-0.35,0.3214,-0.35h2.3786c0.1768,0,0.3214,0.1732,0.3214,0.35S11.6125,15.4,11.4357,15.4zM13.525,15.4857c-0.3728,0,-0.675,-0.1871,-0.675,-0.4179s0.3022,-0.4179,0.675,-0.4179s0.675,0.1871,0.675,0.4179C14.2,15.4048,13.8978,15.4857,13.525,15.4857z" fill="#9B59B6"/>
    </g>
  </g>
</svg>
