<?xml version="1.0" encoding="UTF-8"?>
<!DOCTYPE svg PUBLIC "-//W3C//DTD SVG 1.1//EN" "http://www.w3.org/Graphics/SVG/1.1/DTD/svg11.dtd">
<svg version="1.1" id="Layer_1" xmlns="http://www.w3.org/2000/svg" xmlns:xlink="http://www.w3.org/1999/xlink" x="0px" y="0px" width="16px" height="16px" viewBox="0 0 16 16" enable-background="new 0 0 16 16" xml:space="preserve">
  <g id="main">
    <clipPath id="clip_mask">
      <path d="M5.867,15.1803l2.7895,-3.4654l-1.0187,-1.0333c-0.483,-0.49,-0.479,-1.2832,0.0089,-1.7681l0.5142,-0.5113c0.2372,-0.2356,0.5516,-0.3653,0.8856,-0.3653c0.2295,0,0.4545,0.0629,0.6507,0.1819c0.2877,0.1745,0.5206,0.2735,0.6638,0.3171c0.1185,-0.1156,0.2462,-0.2386,0.3821,-0.3696c0.2161,-0.2082,0.4577,-0.4409,0.714,-0.6941c0.0011,-0.0382,0.0014,-0.0816,0.0017,-0.1159c0.0024,-0.3305,0.0063,-0.8837,0.4516,-1.3264c0.2822,-0.2806,0.6514,-0.4351,1.0395,-0.4351c0.5087,0,0.8845,0.2607,0.9875,0.3406l0.0487,0.0378l1.3402,1.3333L16,7.9758V0H0v16h5.6111C5.5858,15.7135,5.6735,15.4207,5.867,15.1803z" fill-rule="evenodd"/>
    </clipPath>
    <g id="icon" clip-path="url(#clip_mask)">
      <path d="M12.7,14.5H1.3c-0.4418,0,-0.8,-0.3582,-0.8,-0.8V1.3c0,-0.4418,0.3582,-0.8,0.8,-0.8h11.4c0.4418,0,0.8,0.3582,0.8,0.8v12.4C13.5,14.1418,13.1418,14.5,12.7,14.5z" fill="none" stroke="#FFFFFF" stroke-width="1" stroke-miterlimit="1"/>
      <rect x="2.5" y="7.5" width="9" height="5" fill="none" stroke="#FFFFFF" stroke-width="1" stroke-miterlimit="1"/>
      <path d="M11.4875,4h-8.975C2.2295,4,2,3.7705,2,3.4875v-0.975C2,2.2295,2.2295,2,2.5125,2h8.975c0.283,0,0.5125,0.2295,0.5125,0.5125v0.975C12,3.7705,11.7705,4,11.4875,4z" fill="#FFFFFF"/>
      <path d="M2.5,5.5h4" fill="none" stroke="#FFFFFF" stroke-width="1" stroke-linecap="round" stroke-miterlimit="1"/>
      <path d="M8.5,5.5h3" fill="none" stroke="#FFFFFF" stroke-width="1" stroke-linecap="round" stroke-miterlimit="1"/>
      <path d="M3.9014,11.3597c0.0087,-0.0163,0.0162,-0.0343,0.0243,-0.0533c0.02,-0.0473,0.0426,-0.1008,0.0864,-0.138c0.2734,-0.2323,0.554,-0.4652,0.8254,-0.6905c0,0,0.2414,-0.2004,0.3487,-0.2898l-0.0011,0.0001c-0.1388,0.0146,-0.2541,0.0268,-0.3724,0.037l-0.0327,0.0032c-0.033,0.0035,-0.0643,0.0066,-0.0953,0.0066c-0.0383,0,-0.0708,-0.0049,-0.0996,-0.015l-0.0085,-0.003c-0.1024,-0.0359,-0.2296,-0.0804,-0.2713,-0.1744c-0.043,-0.0971,-0.0022,-0.2544,0.0629,-0.3403c0.2756,-0.364,0.6227,-0.6384,1.0315,-0.8155c0.1762,-0.0764,0.3605,-0.1369,0.5387,-0.1954c0.0775,-0.0255,0.1576,-0.0518,0.2357,-0.079c0.018,-0.0062,0.0391,-0.0128,0.0628,-0.0128l0.085,-0.0005c0.0779,0,0.24,0,0.2784,0.1554c0.0227,0.0921,-0.0518,0.1954,-0.1707,0.3224c-0.0471,0.0504,-0.1034,0.0884,-0.1577,0.1251c-0.0373,0.0252,-0.0756,0.051,-0.108,0.0792c-0.0378,0.0329,-0.0699,0.0755,-0.1037,0.1205c-0.0136,0.0181,-0.0241,0.032,-0.0348,0.0456c-0.0129,0.0164,-0.0238,0.0347,-0.0352,0.054c-0.0067,0.0112,-0.0124,0.0206,-0.0182,0.0298l-0.0772,0.1218l-0.0402,-0.1384c-0.0037,-0.0126,-0.0094,-0.0263,-0.0155,-0.0408c-0.0186,-0.0449,-0.0396,-0.0957,-0.0208,-0.1464c0.0229,-0.0618,0.0713,-0.1234,0.1437,-0.1832c0.0547,-0.0451,0.1121,-0.0876,0.1676,-0.1286c0.0628,-0.0465,0.1247,-0.0922,0.1816,-0.1402c0.0018,-0.0034,0.0066,-0.0226,0.0065,-0.0449c-0.0055,-0.003,-0.0129,-0.0064,-0.0166,-0.007h-0.0159c-0.0564,0,-0.1219,0.0023,-0.1781,0.019c-0.6785,0.2011,-1.1296,0.4731,-1.4623,0.8818c-0.007,0.0086,-0.015,0.0169,-0.0229,0.0252c-0.0072,0.0074,-0.018,0.0185,-0.0199,0.0232c-0.0076,0.0214,-0.0176,0.0444,-0.0273,0.0667c-0.0124,0.0286,-0.0415,0.0957,-0.0367,0.1136c0.0092,0.0148,0.0817,0.0454,0.155,0.0454l0.0068,-0.0001c0.164,-0.005,0.3325,-0.027,0.4955,-0.0483l0.0708,-0.0092c0.0218,-0.0028,0.0411,-0.0041,0.0589,-0.0041c0.1153,0,0.1939,0.0566,0.2473,0.178l0.0204,0.0463l-1.1274,0.8815c0.203,-0.1139,0.4127,-0.2318,0.6177,-0.3498l0.0805,-0.0461c0.2598,-0.1484,0.5284,-0.3018,0.7285,-0.5354c0.0381,-0.0444,0.0998,-0.0483,0.1541,-0.0517c0.0186,-0.0012,0.0362,-0.0022,0.0513,-0.005l0.1276,-0.0235l-0.0573,0.1163c-0.0065,0.0131,-0.012,0.0274,-0.0178,0.0425c-0.0164,0.0426,-0.0343,0.0893,-0.0722,0.1231c-0.1829,0.1629,-0.2472,0.2395,-0.2788,0.3585c0.0136,-0.0099,0.026,-0.0196,0.0376,-0.0297c0.1019,-0.089,0.2034,-0.1785,0.3049,-0.268l0.0199,-0.0175c0.1621,-0.143,0.3297,-0.2907,0.4963,-0.4342c0.0483,-0.0416,0.1187,-0.0478,0.1564,-0.0478l0.0131,0.0003c0.0617,0.0024,0.1,0.0839,0.1041,0.0932c0.0083,0.0186,0.0101,0.0343,0.0083,0.0473c0.1114,-0.0936,0.2448,-0.177,0.4065,-0.2548c0.0394,-0.0189,0.0756,-0.0281,0.1106,-0.0281c0.1024,0,0.1574,0.0773,0.1975,0.1337c0.0085,0.012,0.0156,0.022,0.0229,0.0313c0.0439,0.0559,0.0073,0.1397,-0.0412,0.2356c-0.0149,0.0293,-0.0313,0.0575,-0.0483,0.0848c0.2845,-0.1623,0.5078,-0.3664,0.6801,-0.6209c0.0296,-0.0437,0.0781,-0.0641,0.1209,-0.0821c0.0157,-0.0066,0.0304,-0.0127,0.0433,-0.0198l0.1065,-0.0586l-0.0103,0.1211c-0.0011,0.0136,-0.001,0.0281,-0.001,0.0434c0.0002,0.0417,0.0004,0.0889,-0.0217,0.1319c-0.0416,0.0811,-0.0877,0.1606,-0.1335,0.2381c0.1258,-0.0968,0.2559,-0.1968,0.3878,-0.293c0.0387,-0.0283,0.0819,-0.0431,0.1236,-0.0574c0.0162,-0.0055,0.0323,-0.011,0.0477,-0.0173l0.0732,-0.0301l0.0154,0.0776c0.0029,0.0147,0.0064,0.0293,0.0098,0.044c0.0096,0.0406,0.0189,0.0801,0.0212,0.1222c0.0035,0.0645,0.0029,0.1288,0.0022,0.1969c0.1345,-0.0675,0.2258,-0.1731,0.3145,-0.2755c0.036,-0.0416,0.0768,-0.0888,0.1193,-0.1312c0.0211,-0.021,0.0419,-0.0423,0.0627,-0.0636c0.0658,-0.0674,0.1297,-0.1329,0.2002,-0.1908c0.0502,-0.0412,0.1094,-0.0629,0.1712,-0.0629c0.094,0,0.1823,0.0508,0.2363,0.1359c0.1493,0.2356,0.0698,0.6517,-0.1547,0.8095c-0.0431,0.0303,-0.0961,0.0372,-0.1387,0.0427c-0.0167,0.0022,-0.0307,0.004,-0.0431,0.0068l-0.1388,0.0318l0.0667,-0.1257l0.0613,-0.1145c0.0523,-0.0974,0.0998,-0.1857,0.1425,-0.2737c0.0085,-0.0175,0.011,-0.0477,0.0055,-0.0657c-0.0159,-0.0522,-0.0387,-0.1052,-0.0606,-0.1563l-0.0009,-0.002l-0.0004,0.0002c-0.0427,0.0213,-0.0828,0.0414,-0.1113,0.0683c-0.079,0.0749,-0.1567,0.1533,-0.2319,0.2292c-0.1042,0.1051,-0.2117,0.2136,-0.324,0.3144c-0.0556,0.0498,-0.1561,0.1003,-0.2406,0.1004c-0.0229,0,-0.0438,-0.0038,-0.0621,-0.0113c-0.0718,-0.0293,-0.1,-0.1149,-0.1273,-0.1976c-0.0077,-0.0232,-0.014,-0.0424,-0.0208,-0.0595c-0.0056,-0.0142,-0.009,-0.0285,-0.0113,-0.043c-0.0196,0.013,-0.0371,0.0248,-0.0541,0.0373c-0.0499,0.0364,-0.0995,0.0732,-0.1491,0.1101c-0.1037,0.077,-0.21,0.1559,-0.3181,0.2295c-0.0402,0.0274,-0.0874,0.0344,-0.1291,0.0406c-0.0158,0.0024,-0.0307,0.0045,-0.0447,0.0078l-0.0733,0.0173c0,0,-0.0137,-0.1557,-0.0155,-0.1756c-0.0206,0.0139,-0.041,0.0277,-0.0614,0.0415c-0.1237,0.0839,-0.2399,0.1626,-0.3634,0.2362c-0.0687,0.041,-0.1545,0.0654,-0.2296,0.0654c-0.0106,0,-0.0211,-0.0005,-0.0313,-0.0014c-0.0623,-0.0059,-0.0768,-0.0659,-0.0966,-0.1574c-0.0557,0.0367,-0.1184,0.0767,-0.1886,0.1011c-0.0739,0.0257,-0.1811,0.0598,-0.2587,0.0598h0c-0.0473,0,-0.0823,-0.012,-0.107,-0.0365c-0.0376,-0.0375,-0.0562,-0.0782,-0.0553,-0.1211c0.0015,-0.0732,0.0598,-0.1266,0.1066,-0.1695c0.0189,-0.0173,0.0365,-0.0335,0.0473,-0.0475c0.013,-0.0168,0.0265,-0.0333,0.0404,-0.0495c-0.0353,0.0258,-0.0707,0.0508,-0.106,0.0759c-0.0846,0.06,-0.1721,0.1221,-0.252,0.1896c-0.1103,0.0933,-0.22,0.1912,-0.3261,0.286c-0.105,0.0939,-0.2137,0.1909,-0.3234,0.2838c-0.0394,0.0333,-0.1088,0.0585,-0.1615,0.0585c-0.0272,0,-0.0502,-0.0064,-0.0684,-0.0191c-0.0651,-0.0453,-0.0794,-0.1566,-0.0685,-0.2176c0.007,-0.0398,0.0191,-0.0778,0.034,-0.1176l-0.0245,0.0142c-0.1282,0.0746,-0.2441,0.142,-0.3592,0.2075c-0.2993,0.1704,-0.5984,0.3387,-0.8791,0.4966c-0.0265,0.0148,-0.0562,0.0237,-0.0838,0.025c-0.0505,0.0024,-0.1018,0.0034,-0.1513,0.0042l-0.166,0.0033L3.9014,11.3597zM7.3245,10.0302c-0.1027,0.0383,-0.2244,0.1282,-0.3052,0.2251C7.1419,10.2022,7.2609,10.1145,7.3245,10.0302z" fill="#FFFFFF"/>
    </g>
    <g id="overlay">
      <path d="M15.8859,9.2721l-1.2647,-1.2566l-1.2965,-1.2898c0,0,-0.3909,-0.3031,-0.7092,0.0133c-0.3183,0.3165,0.0171,0.975,-0.3516,1.3415c-0.5441,0.5409,-1.0158,0.9816,-1.3771,1.3408c-0.3885,0.3862,-1.3251,-0.1152,-1.7083,-0.3476c-0.1004,-0.0609,-0.2295,-0.0452,-0.3127,0.0375l-0.5143,0.5113c-0.0989,0.0983,-0.0997,0.2576,-0.0018,0.3569l1.7991,1.8248l-0.0063,0.0062l0.3174,0.3093l0.3114,0.3158l0.0063,-0.0062l1.8354,1.7886c0.0999,0.0974,0.26,0.0966,0.359,-0.0018l0.5143,-0.5113c0.0832,-0.0827,0.099,-0.211,0.0377,-0.3109c-0.2337,-0.381,-0.7381,-1.3121,-0.3496,-1.6984c0.3613,-0.3592,0.8045,-0.8282,1.3486,-1.3691c0.3687,-0.3666,1.0311,-0.0331,1.3494,-0.3496C16.1908,9.6607,15.8859,9.2721,15.8859,9.2721z" fill-rule="evenodd" fill="#FFFFFF"/>
      <path d="M9.8098,11.8769L6.646,15.8073c-0.1025,0.1273,0.0171,0.2526,0.146,0.1529l4.0029,-3.0982L9.8098,11.8769z" fill-rule="evenodd" fill="#FFFFFF"/>
    </g>
  </g>
</svg>
