<?xml version="1.0" encoding="UTF-8"?>
<!DOCTYPE svg PUBLIC "-//W3C//DTD SVG 1.1//EN" "http://www.w3.org/Graphics/SVG/1.1/DTD/svg11.dtd">
<svg version="1.1" id="Layer_1" xmlns="http://www.w3.org/2000/svg" xmlns:xlink="http://www.w3.org/1999/xlink" x="0px" y="0px" width="16px" height="16px" viewBox="0 0 16 16" enable-background="new 0 0 16 16" xml:space="preserve">
  <g id="main">
    <clipPath id="clip_mask">
      <path d="M9,11.7638L5.7173,7.8245l-0.0571,-0.211c-0.0395,-0.1459,-0.1409,-0.6577,0.2115,-1.1181C6.0133,6.3104,6.34,6,6.9374,6h8.7736c0.105,0,0.2005,0.0102,0.289,0.0267V0H0v16h9V11.7638z" fill-rule="evenodd"/>
    </clipPath>
    <g id="icon" clip-path="url(#clip_mask)">
      <path d="M13.6917,13H13V0.3083C13,0.138,12.862,0,12.6917,0H1.3083C1.138,0,1,0.138,1,0.3083V13H0.3083C0.138,13,0,13.138,0,13.3083v1.3833C0,14.862,0.138,15,0.3083,15h1h11.3833h1c0.1703,0,0.3083,-0.138,0.3083,-0.3083v-1.3833C14,13.138,13.862,13,13.6917,13zM6,2h2v2H6V2zM6,5h2v2H6V5zM6,8h2v2H6V8zM3,2h2v2H3V2zM3,5h2v2H3V5zM3,8h2v2H3V8zM9,14H5v-3h4V14zM11,10H9V8h2V10zM11,7H9V5h2V7zM11,4H9V2h2V4z" fill="#FFFFFF"/>
    </g>
    <g id="overlay">
      <path d="M15.711,7c-1.2524,0,-7.5477,0,-8.7736,0c-0.4072,0,-0.3119,0.3523,-0.3119,0.3523L10,11.4017V16h2.6v-4.6089l3.3589,-4.0388C15.9589,7.3523,16.1492,7,15.711,7zM11.9,11.3505V15.5h-0.6v-4.1495l2.042,-3.7551c0,0,1.5374,0.0107,1.5675,0.0107C14.9771,7.6061,11.9,11.3505,11.9,11.3505z" fill-rule="evenodd" fill="#FFFFFF"/>
    </g>
  </g>
</svg>
