<?xml version="1.0" encoding="UTF-8"?>
<!DOCTYPE svg PUBLIC "-//W3C//DTD SVG 1.1//EN" "http://www.w3.org/Graphics/SVG/1.1/DTD/svg11.dtd">
<svg version="1.1" id="Layer_1" xmlns="http://www.w3.org/2000/svg" xmlns:xlink="http://www.w3.org/1999/xlink" x="0px" y="0px" width="16px" height="16px" viewBox="0 0 16 16" enable-background="new 0 0 16 16" xml:space="preserve">
  <g id="icon">
    <path d="M12.9,15.5H2.1c-0.3314,0,-0.6,-0.2686,-0.6,-0.6V1.1c0,-0.3314,0.2686,-0.6,0.6,-0.6c0,0,6.55,0,7.0167,0s0.7328,0.1495,0.9248,0.3414s2.717,2.717,3.0336,3.0336c0.3166,0.3166,0.425,0.575,0.425,1.0416S13.5,14.9,13.5,14.9C13.5,15.2314,13.2314,15.5,12.9,15.5z" fill-rule="evenodd" fill="none" stroke="#FFFFFF" stroke-width="1" stroke-miterlimit="1"/>
    <path d="M13.2,5H9.9614c-0.0574,0,-0.1125,-0.0097,-0.1639,-0.0275C9.399,4.8674,9,4.473,9,4V1h1v2.9646c0.0116,0.0122,0.0296,0.0263,0.0454,0.0354H13.2V5z" fill="#FFFFFF"/>
    <path d="M7.5015,4.7868c0.1878,0.0351,0.3699,0.0833,0.5457,0.1435C6.8564,8.4683,6.8348,8.7,6.8348,8.7S6.6496,8.7087,2.9,8.4471c0.0097,-0.1565,0.0286,-0.3141,0.0571,-0.4721C3.3465,5.8181,5.3811,4.3907,7.5015,4.7868z" fill-rule="evenodd" fill="#FFFFFF"/>
    <path d="M10.6665,12.4796c0.6812,-0.8613,1.0073,-2.0058,0.8037,-3.18c-0.25,-1.4416,-1.2353,-2.5634,-2.4943,-3.0367c-0.4669,1.6707,-1.2486,3.8377,-1.2486,3.8377s-1.5798,-0.1046,-3.9024,-0.3066c-0.0247,1.0479,0.356,2.1038,1.1422,2.9034c1.5244,1.5506,3.996,1.5506,5.5204,0C10.5526,12.6312,10.6227,12.5507,10.6665,12.4796z" fill="#FFFFFF"/>
  </g>
</svg>
