<?xml version="1.0" encoding="UTF-8"?>
<!DOCTYPE svg PUBLIC "-//W3C//DTD SVG 1.1//EN" "http://www.w3.org/Graphics/SVG/1.1/DTD/svg11.dtd">
<svg version="1.1" id="Layer_1" xmlns="http://www.w3.org/2000/svg" xmlns:xlink="http://www.w3.org/1999/xlink" x="0px" y="0px" width="16px" height="16px" viewBox="0 0 16 16" enable-background="new 0 0 16 16" xml:space="preserve">
  <g id="icon">
    <g>
      <path d="M7.8892,3.1234c-0.0065,-0.0935,-0.011,-0.1854,-0.011,-0.2731c0,-0.1619,0.0125,-0.3164,0.0357,-0.4639c0.1218,-0.2018,0.2454,-0.4325,0.3256,-0.5446c0.726,0.455,3.0229,0.4304,3.7171,0c0.0398,0.1713,0.1597,0.4386,0.2893,0.6197c0.0161,0.1247,0.0245,0.2543,0.0245,0.3889c0,1.3924,-0.825,3.6171,-2.1664,3.6498c0.0316,0.2065,0.0561,0.4239,0.0733,0.6525c1.6724,-0.1244,2.834,-2.8015,2.834,-4.4318C13.0114,1.0514,12.4248,0,10.0698,0C7.6883,0,7.148,1.0514,7.148,2.7208c0,0.0501,0.0011,0.1012,0.0032,0.1533C7.4012,2.9328,7.649,3.0142,7.8892,3.1234z" fill-rule="evenodd" fill="#FFFFFF"/>
      <path d="M15.9933,10.6536c-0.3871,-2.8835,-0.1097,-2.8465,-3.4377,-3.998c-0.0992,-0.0467,-0.1776,-0.0836,-0.2416,-0.1103c-0.7413,1.708,-1.6,2.7145,-2.1063,2.9214c-0.0091,0.369,-0.0271,0.6787,-0.0555,0.9409c0.0784,0.0271,0.1569,0.0549,0.2354,0.0834c0.4345,0.1576,0.9687,0.3514,1.4154,0.7516c0.28,0.2509,0.4756,0.5497,0.617,0.8665C14.1416,11.9426,16.1301,11.5553,15.9933,10.6536z" fill="#FFFFFF"/>
    </g>
    <g>
      <path d="M11.8694,14.4675c-0.1087,-0.777,-0.0952,-1.9081,-0.7337,-2.4801c-0.3039,-0.2722,-0.7118,-0.4195,-1.0892,-0.5564c-0.2941,-0.1067,-0.5917,-0.2037,-0.889,-0.3012c-0.3872,-0.1269,-0.7726,-0.2985,-1.1614,-0.4109c0.2706,0.6911,0.4408,1.6877,0.5177,2.425c0.0198,0.1901,0.0867,0.5284,-0.0021,0.7132c-0.0744,0.1547,-0.1958,0.1358,-0.3636,0.157c-0.7276,0.0922,-1.4565,0.1385,-2.1867,0.1412c-0.7302,-0.0027,-1.4591,-0.049,-2.1867,-0.1412c-0.1678,-0.0213,-0.2893,-0.0023,-0.3636,-0.157c-0.0888,-0.1848,-0.0219,-0.5231,-0.0021,-0.7132c0.0771,-0.7399,0.2482,-1.7392,0.5205,-2.4322c-0.1136,0.0254,-0.236,0.0983,-0.3637,0.1462c-0.3609,0.1354,-0.7355,0.2406,-1.1014,0.3619c-0.4806,0.1593,-0.9878,0.3083,-1.4262,0.5679c-0.7159,0.4239,-0.8064,1.2314,-0.9157,1.9876c-0.0585,0.4044,-0.2161,0.9107,-0.0453,1.3086c0.133,0.31,0.4438,0.4792,0.7488,0.5837c0.5036,0.1726,1.0522,0.2178,1.5799,0.2535c0.809,0.0548,1.6215,0.0591,2.432,0.0634c1.6436,0.0087,3.3075,0.0592,4.9467,-0.0863c0.6629,-0.0589,1.87,-0.1308,2.0755,-0.9413C11.9005,14.7975,11.8949,14.6288,11.8694,14.4675z" fill-rule="evenodd" fill="#FFFFFF"/>
      <path d="M9.1924,7.3903c-0.1664,-2.9534,-1.6374,-3.6469,-3.231,-3.6469s-3.0447,0.6935,-3.211,3.6469c-0.1288,4.9129,0.2606,3.996,1.8481,3.2788c0.3961,0.3757,0.855,0.6116,1.3619,0.6116c0.5075,0,0.9667,-0.2364,1.3631,-0.6128C8.9184,11.3852,9.3213,12.306,9.1924,7.3903zM5.9797,10.677c-1.3731,0,-2.1338,-2.3615,-2.1338,-3.9043c0,-0.7549,0.1853,0.3602,1.3426,0.3602c0.7018,0,2.8771,-1.2051,2.8771,-0.1801C8.0656,9.3285,7.075,10.677,5.9797,10.677z" fill="#FFFFFF"/>
    </g>
  </g>
</svg>
