<?xml version="1.0" encoding="UTF-8"?>
<!DOCTYPE svg PUBLIC "-//W3C//DTD SVG 1.1//EN" "http://www.w3.org/Graphics/SVG/1.1/DTD/svg11.dtd">
<svg version="1.1" id="Layer_1" xmlns="http://www.w3.org/2000/svg" xmlns:xlink="http://www.w3.org/1999/xlink" x="0px" y="0px" width="16px" height="16px" viewBox="0 0 16 16" enable-background="new 0 0 16 16" xml:space="preserve">
  <g id="main">
    <clipPath id="clip_mask">
      <path d="M6,11.5c0,-3.0327,2.4673,-5.5,5.5,-5.5c1.8588,0,3.5039,0.9278,4.5,2.3436V0H0v16h8.3436C6.9278,15.0039,6,13.3588,6,11.5z"/>
    </clipPath>
    <g id="icon" clip-path="url(#clip_mask)">
      <path d="M2.454,10.587c-0.752,0,-1.361,0.637,-1.361,1.422c0,0.785,0.609,1.422,1.361,1.422c0.752,0,1.361,-0.637,1.361,-1.422C3.815,11.224,3.206,10.587,2.454,10.587zM2.454,12.558c-0.29,0,-0.525,-0.245,-0.525,-0.548c0,-0.303,0.235,-0.548,0.525,-0.548c0.29,0,0.525,0.245,0.525,0.548C2.979,12.312,2.744,12.558,2.454,12.558zM12.295,10.587c-0.752,0,-1.361,0.637,-1.361,1.422c0,0.785,0.609,1.422,1.361,1.422c0.752,0,1.361,-0.637,1.361,-1.422C13.656,11.224,13.047,10.587,12.295,10.587zM12.295,12.558c-0.29,0,-0.525,-0.245,-0.525,-0.548c0,-0.303,0.235,-0.548,0.525,-0.548c0.29,0,0.525,0.245,0.525,0.548C12.82,12.312,12.585,12.558,12.295,12.558z" fill="#FFFFFF"/>
      <g>
        <path d="M5,12v-2v-0.65V4.301c0,-0.197,-0.163,-0.301,-0.352,-0.301H1.383c-0.189,0,-0.2,0.091,-0.342,0.329c-0.143,0.238,-0.376,0.916,-0.975,2.134C0.021,6.554,0,7.266,0,7.426c0,1.238,0,4.229,0,4.229c0,0.197,0.196,0.345,0.385,0.345h0.216c0,0,-0.002,0.042,-0.002,0.027c0,-1.058,0.823,-1.952,1.839,-1.952c0.91,0,1.665,0.695,1.762,1.601V12H5zM4,7.5H0.6v-0.709L1.357,5H4V7.5z" fill="#FFFFFF"/>
        <path d="M14.355,1H6.287C5.912,1,5.5,1.256,5.5,1.649V9.35v0.65v2h4.975c0,-1.089,0.824,-1.975,1.841,-1.975c1.017,0,1.841,0.886,1.841,1.975H15v-2V1.649C15,1.256,14.73,1,14.355,1z" fill="#FFFFFF"/>
      </g>
    </g>
    <g id="overlay">
      <path d="M11.4928,15.9855C9.0155,15.9855,7,13.9701,7,11.4928S9.0155,7,11.4928,7s4.4928,2.0155,4.4928,4.4928S13.9701,15.9855,11.4928,15.9855zM11.4928,8.0401c-1.9038,0,-3.4527,1.5489,-3.4527,3.4527c0,1.9039,1.5489,3.4527,3.4527,3.4527c1.9039,0,3.4527,-1.5489,3.4527,-3.4527C14.9455,9.5889,13.3966,8.0401,11.4928,8.0401z" fill-rule="evenodd" fill="#FFFFFF"/>
      <path d="M11.4928,7.1915c-2.3755,0,-4.3013,1.9258,-4.3013,4.3013c0,2.3755,1.9258,4.3013,4.3013,4.3013s4.3013,-1.9258,4.3013,-4.3013C15.7941,9.1172,13.8683,7.1915,11.4928,7.1915zM11.4928,15.137c-2.0126,0,-3.6442,-1.6316,-3.6442,-3.6442c0,-2.0126,1.6316,-3.6442,3.6442,-3.6442s3.6442,1.6316,3.6442,3.6442C15.137,13.5054,13.5054,15.137,11.4928,15.137z" fill-rule="evenodd" fill="#FFFFFF"/>
      <path d="M13.4291,13.8025c-0.3332,-0.0001,-1.8552,-1.3305,-2.0595,-1.5366c-0.18,-0.1816,-0.3125,-0.3152,-0.2603,-0.4859c-0.019,-0.098,-0.0215,-0.2161,-0.0211,-0.33c0.0007,-0.2121,0.0422,-0.9361,0.1057,-1.5878c0.1331,-1.3672,0.2504,-1.3672,0.3446,-1.3672c0.0949,0.0005,0.2126,0.0011,0.3202,1.3506c0.053,0.6645,0.0795,1.374,0.0788,1.5681c-0.0003,0.0698,-0.0007,0.1379,-0.0033,0.2005c0.0283,0.0265,0.0579,0.0555,0.0894,0.0873c0.1273,0.1284,0.5385,0.5753,0.9124,1.0266c0.6805,0.8215,0.6658,0.9601,0.5865,1.0388C13.5061,13.7831,13.4765,13.8025,13.4291,13.8025L13.4291,13.8025z" fill-rule="evenodd" fill="#FFFFFF"/>
    </g>
  </g>
</svg>
