<?xml version="1.0" encoding="UTF-8"?>
<!DOCTYPE svg PUBLIC "-//W3C//DTD SVG 1.1//EN" "http://www.w3.org/Graphics/SVG/1.1/DTD/svg11.dtd">
<svg version="1.1" id="Layer_1" xmlns="http://www.w3.org/2000/svg" xmlns:xlink="http://www.w3.org/1999/xlink" x="0px" y="0px" width="16px" height="16px" viewBox="0 0 16 16" enable-background="new 0 0 16 16" xml:space="preserve">
  <g id="icon">
    <path d="M15,0H4c-0.552,0,-1,0.448,-1,1v2h13V1C16,0.448,15.552,0,15,0z" fill="#FFFFFF"/>
    <path d="M16,3v8c0,0.551,-0.449,1,-1,1h-2.767c-0.369,-0.432,-0.885,-0.716,-1.604,-1l4.371,0L15,3H16zM4,3.358V3H3v1.002C3.275,3.729,3.607,3.515,4,3.358z" fill="#FFFFFF"/>
    <path d="M11.918,13.74c-0.299,-1.501,-0.83,-1.526,-3.735,-2.548c-0.424,-0.159,-0.544,-0.387,-0.512,-0.713c0.82,-0.976,1.313,-2.554,1.313,-3.657c0,-1.709,-0.585,-2.791,-2.984,-2.791c-0.01,0,0.003,0,0,0c-2.398,0,-2.935,1.082,-2.935,2.791c0,1.103,0.492,2.679,1.311,3.654c0.032,0.326,-0.089,0.556,-0.513,0.714C0.958,12.212,0.426,12.238,0.127,13.739c-0.09,0.603,-0.105,0.856,0.134,1.525c0.269,0.753,4.073,0.654,5.739,0.654c0.007,0,-0.011,0,0,0c1.665,0,5.514,0.099,5.783,-0.654C12.023,14.596,12.008,14.344,11.918,13.74z" fill-rule="evenodd" fill="#FFFFFF"/>
  </g>
</svg>
