<?xml version="1.0" encoding="UTF-8"?>
<!DOCTYPE svg PUBLIC "-//W3C//DTD SVG 1.1//EN" "http://www.w3.org/Graphics/SVG/1.1/DTD/svg11.dtd">
<svg version="1.1" id="Layer_1" xmlns="http://www.w3.org/2000/svg" xmlns:xlink="http://www.w3.org/1999/xlink" x="0px" y="0px" width="16px" height="16px" viewBox="0 0 16 16" enable-background="new 0 0 16 16" xml:space="preserve">
  <g id="main">
    <clipPath id="clip_mask">
      <path d="M7,15.7051V8.2949C7,7.5809,7.5809,7,8.2949,7h1.7513h3.9077h1.7513c0.1016,0,0.2,0.013,0.2949,0.0352V0H0v16h7.0352C7.013,15.9051,7,15.8067,7,15.7051z"/>
    </clipPath>
    <g id="icon" clip-path="url(#clip_mask)">
      <polygon points="13.5,0.4958 12.0381,1.8587 10.8629,0.4958 9.5877,1.8587 8.3125,0.4958 6.9759,1.8587 5.7007,0.4958 4.4256,1.8587 3.1503,0.4958 1.8752,1.8587 0.5,0.4958 0.5,14.4875 1.8752,13.1247 3.1503,14.4876 4.4256,13.1247 5.7007,14.4876 6.9759,13.1247 8.3125,14.4876 9.5877,13.1247 10.7629,14.4876 12.0381,13.1247 13.5,14.4875" fill="none" stroke="#FFFFFF" stroke-width="1" stroke-linecap="round" stroke-miterlimit="1" stroke-linejoin="round"/>
      <path d="M11.6917,5H2.3083C2.138,5,2,4.862,2,4.6917V3.3083C2,3.138,2.138,3,2.3083,3h9.3833c0.1703,0,0.3083,0.138,0.3083,0.3083v1.3833C12,4.862,11.862,5,11.6917,5z" fill="#FFFFFF"/>
      <path d="M2.5,6.5h5M2.5,8.5h5" fill="none" stroke="#FFFFFF" stroke-width="1" stroke-linecap="round" stroke-miterlimit="1"/>
      <path d="M9.5,6.5h2M9.5,8.5h2" fill="none" stroke="#FFFFFF" stroke-width="1" stroke-linecap="round" stroke-miterlimit="1"/>
      <line x1="8.5" y1="10.5" x2="11.5" y2="10.5" fill="none" stroke="#FFFFFF" stroke-width="1" stroke-linecap="round" stroke-miterlimit="1"/>
    </g>
    <g id="overlay">
      <g>
        <path d="M15.7051,8h-2.7513v1.9769h-1.9077V8H8.2949C8.132,8,8,8.132,8,8.2949v7.4103c0,0.1629,0.132,0.2949,0.2949,0.2949h7.4103c0.1629,0,0.2949,-0.132,0.2949,-0.2949V8.2949C16,8.132,15.868,8,15.7051,8zM15,14.4051c0,0.2891,-0.205,0.5257,-0.4556,0.5257H9.4556c-0.2506,0,-0.4556,-0.2366,-0.4556,-0.5257v-2.864c0,-0.2891,0.205,-0.5257,0.4556,-0.5257h5.0888c0.2506,0,0.4556,0.2365,0.4556,0.5257V14.4051z" fill-rule="evenodd" fill="#FFFFFF"/>
        <path d="M10.0058,14.1615h-0.1449c-0.1073,0,-0.1942,-0.087,-0.1942,-0.1942v-1.9885c0,-0.1073,0.087,-0.1942,0.1942,-0.1942h0.1449c0.1073,0,0.1942,0.087,0.1942,0.1942v1.9885C10.2,14.0746,10.113,14.1615,10.0058,14.1615zM14.3333,13.9673v-1.9885c0,-0.1073,-0.087,-0.1942,-0.1942,-0.1942h-0.1449c-0.1073,0,-0.1942,0.087,-0.1942,0.1942v1.9885c0,0.1073,0.087,0.1942,0.1942,0.1942h0.1449C14.2464,14.1615,14.3333,14.0746,14.3333,13.9673zM11.3449,11.7846h-0.1565c-0.2145,0,-0.3884,0.1739,-0.3884,0.3884v0.9847c0,0.2145,0.1739,0.3884,0.3884,0.3884h0.1565c0.2145,0,0.3884,-0.1739,0.3884,-0.3884v-0.9847C11.7333,11.9585,11.5594,11.7846,11.3449,11.7846zM12.8782,11.7846h-0.1565c-0.2145,0,-0.3884,0.1739,-0.3884,0.3884v0.9847c0,0.2145,0.1739,0.3884,0.3884,0.3884h0.1565c0.2145,0,0.3884,-0.1739,0.3884,-0.3884v-0.9847C13.2667,11.9585,13.0928,11.7846,12.8782,11.7846z" fill="#FFFFFF"/>
        <path d="M11.5987,14.1615h-0.6641c-0.0744,0,-0.1346,-0.0603,-0.1346,-0.1346v-0.1154c0,-0.0744,0.0603,-0.1346,0.1346,-0.1346h0.6641c0.0744,0,0.1346,0.0603,0.1346,0.1346v0.1154C11.7333,14.1013,11.6731,14.1615,11.5987,14.1615zM13.2667,14.0269v-0.1154c0,-0.0744,-0.0603,-0.1346,-0.1346,-0.1346h-0.6641c-0.0744,0,-0.1346,0.0603,-0.1346,0.1346v0.1154c0,0.0744,0.0603,0.1346,0.1346,0.1346h0.6641C13.2064,14.1615,13.2667,14.1013,13.2667,14.0269z" fill="#FFFFFF"/>
      </g>
    </g>
  </g>
</svg>
