<?xml version="1.0" encoding="UTF-8"?>
<!DOCTYPE svg PUBLIC "-//W3C//DTD SVG 1.1//EN" "http://www.w3.org/Graphics/SVG/1.1/DTD/svg11.dtd">
<svg version="1.1" id="Layer_1" xmlns="http://www.w3.org/2000/svg" xmlns:xlink="http://www.w3.org/1999/xlink" x="0px" y="0px" width="16px" height="16px" viewBox="0 0 16 16" enable-background="new 0 0 16 16" xml:space="preserve">
  <g id="main">
    <clipPath id="clip_mask">
      <path d="M7,15v-4v-0.9583V9c0,-1.1028,0.8972,-2,2,-2h6c0.3645,0,0.7054,0.0996,1,0.2706V0H0v16h7.2706C7.0996,15.7054,7,15.3645,7,15z"/>
    </clipPath>
    <g id="icon" clip-path="url(#clip_mask)">
      <g>
        <path d="M3.0168,10.232c-0.914,0,-1.655,0.7741,-1.655,1.7291c0,0.955,0.741,1.7291,1.655,1.7291c0.9141,0,1.655,-0.7742,1.655,-1.7291C4.6719,11.0061,3.9309,10.232,3.0168,10.232zM3.0168,12.6275c-0.3523,0,-0.6379,-0.2984,-0.6379,-0.6664c0,-0.3681,0.2856,-0.6664,0.6379,-0.6664c0.3523,0,0.6379,0.2984,0.6379,0.6664C3.6547,12.3292,3.3691,12.6275,3.0168,12.6275z" fill="#FFFFFF"/>
        <path d="M11.6947,10.232c-0.9141,0,-1.6551,0.7741,-1.6551,1.7291c0,0.955,0.741,1.7291,1.6551,1.7291c0.914,0,1.655,-0.7742,1.655,-1.7291C13.3497,11.0061,12.6087,10.232,11.6947,10.232zM11.6947,12.6275c-0.3523,0,-0.6379,-0.2984,-0.6379,-0.6664c0,-0.3681,0.2856,-0.6664,0.6379,-0.6664c0.3523,0,0.6379,0.2984,0.6379,0.6664C12.3326,12.3292,12.047,12.6275,11.6947,12.6275z" fill="#FFFFFF"/>
      </g>
      <path d="M5.07,4H1.69c-0.2309,0,-0.2439,0.1108,-0.4181,0.3997c-0.1742,0.2888,-0.4598,0.9127,-1.1915,2.393C0.0261,6.904,0,7.1622,0,7.3566c0,1.5043,0,4.224,0,4.224C0,11.8199,0.2395,12,0.4704,12h0.264c-0.0004,0,-0.0026,-0.0018,-0.0026,-0.0201c0,-1.2862,1.0062,-2.3725,2.2475,-2.3725c1.2458,0,2.2548,1.0588,2.2475,2.3513c0.0006,0.0003,0.0004,0.0003,0.001,0.0006c0.1342,-0.0816,0.2722,-0.2607,0.2722,-0.4394V4.3661C5.5,4.1268,5.301,4,5.07,4zM4.6,7.4H0.8v-0.6195L1.6994,4.8H4.6V7.4zM15,2.7864V12h-1.0286c0,-1.3205,-1.0048,-2.3946,-2.2444,-2.3946c-1.2395,0,-2.2444,1.0741,-2.2444,2.3946H6V2.7864C6,2.3104,6.5025,2,6.9602,2h7.2528C14.6707,2,15,2.3104,15,2.7864z" fill="#FFFFFF"/>
    </g>
    <g id="overlay">
      <path d="M15,15.5H9c-0.2761,0,-0.5,-0.2239,-0.5,-0.5V9.5h7v5.5C15.5,15.2761,15.2761,15.5,15,15.5z" fill="none" stroke="#FFFFFF" stroke-width="1" stroke-miterlimit="1"/>
      <path d="M16,10H8V9c0,-0.5523,0.4477,-1,1,-1h6c0.5523,0,1,0.4477,1,1V10z" fill="#FFFFFF"/>
      <path d="M10.9,11.5h2.2M10.9,13.5h2.2" fill="none" stroke="#FFFFFF" stroke-width="1" stroke-linecap="round" stroke-miterlimit="1"/>
    </g>
  </g>
</svg>
