<?xml version="1.0" encoding="UTF-8"?>
<!DOCTYPE svg PUBLIC "-//W3C//DTD SVG 1.1//EN" "http://www.w3.org/Graphics/SVG/1.1/DTD/svg11.dtd">
<svg version="1.1" id="Layer_1" xmlns="http://www.w3.org/2000/svg" xmlns:xlink="http://www.w3.org/1999/xlink" x="0px" y="0px" width="16px" height="16px" viewBox="0 0 16 16" enable-background="new 0 0 16 16" xml:space="preserve">
  <g id="main">
    <clipPath id="clip_mask">
      <path d="M6,14.1778v-1.1064c0,-0.8842,0.6096,-1.6518,1.6872,-2.1511c-0.0009,-0.0241,-0.003,-0.0477,-0.003,-0.0721V9.7417c0,-1.8022,2.3647,-2.7452,4.7006,-2.7452c1.4967,0,2.7833,0.3889,3.6151,1.0171V0H0v16h7.0509C6.4101,15.5418,6,14.9313,6,14.1778z" fill-rule="evenodd"/>
    </clipPath>
    <g id="icon" clip-path="url(#clip_mask)">
      <path d="M14,14.5H1c-0.2761,0,-0.5,-0.2239,-0.5,-0.5V1.5h14v12.5C14.5,14.2761,14.2761,14.5,14,14.5z" fill="none" stroke="#FFFFFF" stroke-width="1" stroke-miterlimit="1"/>
      <path d="M15,3H0V1C0,0.4477,0.4477,0,1,0h13c0.5523,0,1,0.4477,1,1V3z" fill="#FFFFFF"/>
      <path d="M2.3903,9.1707l-0.0135,-0.0013c-0.0392,-0.0056,-0.0741,-0.0276,-0.0959,-0.0605l-0.3251,-0.4916c-0.0204,-0.0309,-0.0275,-0.0679,-0.02,-0.1042c0.0072,-0.0357,0.0281,-0.067,0.0589,-0.0874l4.0976,-2.7659c0.0351,-0.0239,0.0754,-0.0363,0.1172,-0.0363c0.0626,0,0.1212,0.0278,0.1609,0.0763l1.3471,1.7124l3.3157,-2.4133l-0.323,-0.4498c-0.0411,-0.0572,-0.0491,-0.13,-0.0216,-0.1948c0.0276,-0.0648,0.0856,-0.1094,0.1552,-0.1195l1.9277,-0.2791c0.0099,-0.0014,0.0197,-0.0021,0.0292,-0.0021c0.0676,0,0.1301,0.0341,0.1672,0.0913c0.0369,0.057,0.0424,0.128,0.0147,0.1901l-0.8168,1.8262c-0.0321,0.0718,-0.1038,0.1183,-0.1826,0.1183c-0.065,0,-0.1241,-0.0303,-0.1621,-0.0833l-0.2828,-0.3877L7.7336,8.4693l-0.0059,0.0034c-0.0326,0.0188,-0.0701,0.0288,-0.1086,0.0288c-0.0651,0,-0.1256,-0.0281,-0.1661,-0.077L6.0808,6.7083L2.4716,9.1485c-0.0227,0.0149,-0.0486,0.0223,-0.0751,0.0223H2.3903z" fill="#FFFFFF"/>
      <path d="M4,13H2v-2.2583c0,-0.2439,0.1977,-0.4417,0.4417,-0.4417h1.1167c0.2439,0,0.4417,0.1977,0.4417,0.4417V13zM7,13H5v-2.9583C5,9.7977,5.1977,9.6,5.4417,9.6h1.1167C6.8023,9.6,7,9.7977,7,10.0417V13zM10,13H8V9.4417C8,9.1977,8.1977,9,8.4417,9h1.1167c0.2439,0,0.4417,0.1977,0.4417,0.4417V13zM13,13h-2V8.4417c0,-0.2439,0.1977,-0.4417,0.4417,-0.4417h1.1167c0.2439,0,0.4417,0.1977,0.4417,0.4417V13z" fill="#FFFFFF"/>
    </g>
    <g id="overlay">
      <g>
        <path d="M14.2703,12.8362c-0.5995,0.1756,-1.2876,0.2843,-2.0034,0.2843c-1.8258,0,-3.3989,-0.7048,-3.8223,-1.4323C7.5734,12.0033,7,12.4985,7,13.0714c0,0.0337,0,0.9768,0,1.1064C7,15.1646,8.7072,16,10.7048,16c1.9976,0,3.611,-0.8354,3.611,-1.8222c0,-0.1575,0,-1.0316,0,-1.0583C14.3158,13.0231,14.2999,12.9285,14.2703,12.8362zM10.6064,14.7258c-1.9703,0.0375,-3.5977,-0.7064,-3.5405,-1.7002c0.2464,0.7393,1.6711,1.2908,3.4005,1.2908c1.9027,0,3.6943,-0.5097,3.6943,-1.3619c0,-0.0222,-0.0015,-0.0442,-0.004,-0.0662c0.0306,0.0844,0.0436,0.171,0.0468,0.259C14.238,14.0848,12.5749,14.6884,10.6064,14.7258z" fill-rule="evenodd" fill="#FFFFFF"/>
      </g>
      <g>
        <path d="M12.3849,7.9965c-1.999,0,-3.7007,0.7577,-3.7007,1.7452c0,0.0337,0,0.9768,0,1.1064c0,0.9868,1.7072,1.8222,3.7048,1.8222c1.9976,0,3.611,-0.8354,3.611,-1.8222c0,-0.1575,0,-1.0316,0,-1.0583C16,8.8024,14.3839,7.9965,12.3849,7.9965zM12.2899,11.3957c-1.9703,0.0375,-3.5977,-0.7064,-3.5405,-1.7002c0.2464,0.7393,1.6711,1.2908,3.4005,1.2908c1.9027,0,3.6943,-0.5097,3.6943,-1.3619c0,-0.0222,-0.0015,-0.0442,-0.004,-0.0662c0.0306,0.0844,0.0436,0.171,0.0468,0.259C15.9216,10.7546,14.2585,11.3582,12.2899,11.3957z" fill-rule="evenodd" fill="#FFFFFF"/>
      </g>
    </g>
  </g>
</svg>
