<?xml version="1.0" encoding="UTF-8"?>
<!DOCTYPE svg PUBLIC "-//W3C//DTD SVG 1.1//EN" "http://www.w3.org/Graphics/SVG/1.1/DTD/svg11.dtd">
<svg version="1.1" id="Layer_1" xmlns="http://www.w3.org/2000/svg" xmlns:xlink="http://www.w3.org/1999/xlink" x="0px" y="0px" width="16px" height="16px" viewBox="0 0 16 16" enable-background="new 0 0 16 16" xml:space="preserve">
  <g id="main">
    <clipPath id="clip_mask">
      <path d="M7.9191,15.8872c-0.3974,-0.2376,-0.7954,-0.4755,-1.2018,-0.7135c-0.3261,-0.1931,-0.6955,-0.5009,-0.6955,-1.1957c0,-0.0287,-0.0004,-0.0559,-0.0009,-0.0813c-0.0022,-0.1415,-0.0057,-0.3618,0.0808,-0.5896c-0.0501,-0.1412,-0.0799,-0.3074,-0.0799,-0.5049c0,-0.0287,-0.0004,-0.0558,-0.0009,-0.0812c-0.0023,-0.1499,-0.0061,-0.3881,0.0971,-0.6302c-0.0641,-0.1721,-0.0962,-0.3646,-0.0962,-0.577c0,-0.0292,-0.0005,-0.0557,-0.0009,-0.0795c-0.0021,-0.121,-0.0055,-0.3264,0.0771,-0.5434c-0.0523,-0.1469,-0.0646,-0.2888,-0.0582,-0.4111c0.0369,-0.7076,0.6738,-0.9714,0.8832,-1.0582l0.0211,-0.0082c0.0291,-0.0116,0.1339,-0.0549,0.3004,-0.1237c0.2964,-0.1224,0.7799,-0.3221,1.3765,-0.5662l0.1563,-0.0639l-0.0194,-0.012l0.1482,-0.0607c0.1151,-0.0937,0.2543,-0.1765,0.4184,-0.2477l0.0298,-0.013c0.1458,-0.0673,0.2857,-0.1181,0.4091,-0.1629c0.0461,-0.0167,0.0923,-0.0334,0.1381,-0.051c0.1275,-0.049,0.258,-0.0798,0.3894,-0.0925l0.2864,-0.1173c0.6944,-0.2844,1.245,-0.5049,1.5274,-0.618c0.1,-0.0401,0.2039,-0.0822,0.2039,-0.0822l0.0194,-0.0073c0.0219,-0.0081,0.0404,-0.0154,0.0564,-0.0218c0.1006,-0.0398,0.269,-0.1065,0.4937,-0.1065c0.3322,0,0.5653,0.1422,0.7214,0.2402l0.2244,0.1338c0.7378,0.44,1.4413,0.8598,2.176,1.3031V0H0v16h8.108C8.045,15.9624,7.9816,15.9245,7.9191,15.8872z"/>
    </clipPath>
    <g id="icon" clip-path="url(#clip_mask)">
      <path d="M14.0167,0H1.9833C1.4425,0,1,0.4425,1,0.9833v13.0333c0,0.5408,0.4425,0.9833,0.9833,0.9833h12.0333c0.5408,0,0.9833,-0.4425,0.9833,-0.9833V0.9833C15,0.4425,14.5575,0,14.0167,0zM13,13H3v-1H2v-2h1V8H2V6h1V4H2V2h1l0,0h10V13z" fill="#FFFFFF"/>
      <path d="M1,6v2H0l0,-2H1zM0,2l0,2h1V2H0zM0,10l0,2h1v-2H0z" fill="#FFFFFF"/>
      <path d="M3,6v2H2V6H3zM2,2v2h1V2H2zM2,10v2h1v-2H2z" fill="#FFFFFF"/>
      <path d="M4.5179,7.7214l-0.0136,0.0011c-0.0396,0.0015,-0.0779,-0.014,-0.1052,-0.0424l-0.4077,-0.4256c-0.0256,-0.0268,-0.0392,-0.0619,-0.0383,-0.0989c0.0007,-0.0364,0.0157,-0.0709,0.0423,-0.0965l2.5176,-2.3536c0.0303,-0.0298,0.0677,-0.0492,0.1088,-0.0567c0.0616,-0.0112,0.1243,0.0057,0.1719,0.0463l1.6313,1.4441l1.6502,-1.6345l-0.3982,-0.3849c-0.0507,-0.049,-0.0716,-0.1192,-0.056,-0.1878c0.0155,-0.0687,0.0647,-0.123,0.1314,-0.1453l1.8468,-0.619c0.0095,-0.0032,0.019,-0.0056,0.0284,-0.0073c0.0665,-0.0121,0.1341,0.0103,0.1808,0.06c0.0465,0.0495,0.0646,0.1184,0.0484,0.1845l-0.4773,1.9428c-0.0188,0.0764,-0.081,0.1349,-0.1586,0.149c-0.064,0.0116,-0.1275,-0.0077,-0.1744,-0.053l-0.3476,-0.3309L8.6299,7.1765l-0.0052,0.0044c-0.0287,0.0244,-0.0639,0.0408,-0.1017,0.0477c-0.064,0.0117,-0.1286,-0.0052,-0.1772,-0.0461L6.6891,5.7392L4.5938,7.685c-0.0196,0.0187,-0.0438,0.0306,-0.07,0.0353L4.5179,7.7214z" fill="#FFFFFF"/>
      <path d="M6,12H4V9.2417C4,8.9977,4.1977,8.8,4.4417,8.8h1.1167C5.8023,8.8,6,8.9977,6,9.2417V12zM9,12H7V8.5417C7,8.2977,7.1977,8.1,7.4417,8.1h1.1167C8.8023,8.1,9,8.2977,9,8.5417V12zM12,12h-2V7.4417c0,-0.2439,0.1977,-0.4417,0.4417,-0.4417h1.1167c0.2439,0,0.4417,0.1977,0.4417,0.4417V12z" fill="#FFFFFF"/>
    </g>
    <g id="overlay">
      <path d="M13.7521,12.5674c0,0.4501,0.0001,1.2193,0,1.6712c-0.0001,0.242,-0.0441,0.3087,-0.2609,0.3991c-0.1779,0.0742,-0.3557,0.1479,-0.5353,0.2178c-0.2197,0.0855,-0.2978,-0.206,-0.2978,-0.206s-0.0005,-1.8324,-0.0004,-2.5888c0,-0.138,-0.0069,-0.2764,0.001,-0.4139c0.0112,-0.1941,-0.0712,-0.3189,-0.2353,-0.4161c-0.863,-0.5115,-1.8333,-1.0836,-2.6912,-1.6036c-0.0867,-0.0526,-0.227,-0.1401,-0.227,-0.214c0,-0.0739,0.1719,-0.1344,0.2681,-0.1788c0.1577,-0.0728,0.3241,-0.126,0.4865,-0.1883c0.136,-0.0522,0.2653,-0.0431,0.3918,0.0329c0.9368,0.5626,1.984,1.1805,2.9216,1.7416c0.1351,0.0808,0.1916,0.2009,0.1904,0.3589c-0.0037,0.4614,-0.0013,0.9381,-0.0013,1.3882C13.7588,12.5674,13.7555,12.5674,13.7521,12.5674z" fill="#FFFFFF"/>
      <path d="M7.3057,10.3454c-0.0307,0.0149,0.6619,-0.2741,1.6939,-0.6963l3.1438,1.874c-0.9319,0.3742,-1.6378,0.6471,-1.8863,0.7508c-0.2774,0.1275,-0.1418,0.1324,-0.4154,-0.0302c-0.4136,-0.2432,-2.3829,-1.4174,-2.6249,-1.5487C6.9747,10.5638,6.9555,10.4905,7.3057,10.3454zM15.7558,10.6699c-0.0629,0.0244,-0.7797,0.3081,-1.639,0.6618v0.6459c0.7365,-0.3172,1.4419,-0.5841,1.6796,-0.6824c0.2341,-0.0929,0.1925,-0.1228,0.1982,-0.3443C16.0027,10.6392,15.9253,10.6043,15.7558,10.6699zM7.2219,11.9235c0.8945,0.5238,1.7484,1.047,2.6447,1.5675c0.2281,0.1207,0.2411,0.087,0.4167,0.0154c0.2741,-0.1118,1.092,-0.4476,2.0741,-0.8268v-0.6438c-0.982,0.3905,-1.8186,0.7254,-1.9444,0.7768c-0.4376,0.1834,-0.2957,0.1886,-0.6964,-0.0488c-0.6348,-0.3531,-2.2767,-1.3474,-2.5026,-1.4787c-0.2259,-0.1313,-0.1921,-0.0503,-0.1921,0.2288C7.0218,11.7272,7.0713,11.8343,7.2219,11.9235zM14.1066,10.769c0.7968,-0.3202,1.4073,-0.589,1.6272,-0.6811c0.3314,-0.1407,0.3666,-0.1226,0.0309,-0.3182c-0.9153,-0.5539,-1.7686,-1.062,-2.6874,-1.61c-0.2097,-0.1319,-0.1852,-0.1072,-0.4018,-0.027c-0.0789,0.0329,-0.7616,0.3028,-1.7191,0.6951L14.1066,10.769zM12.3574,14.423c-0.982,0.3905,-1.8186,0.7254,-1.9444,0.7768c-0.4376,0.1833,-0.2957,0.1886,-0.6964,-0.0488c-0.6348,-0.3531,-2.2767,-1.3474,-2.5026,-1.4787c-0.2259,-0.1313,-0.1921,0.0266,-0.1921,0.3056c0,0.2134,0.0502,0.2436,0.2009,0.3328c0.8945,0.5238,1.748,1.047,2.6443,1.5675c0.2281,0.1207,0.2409,0.087,0.4165,0.0154c0.2741,-0.1118,1.0918,-0.4476,2.0739,-0.8268V14.423zM15.7558,11.8814c-0.0629,0.0244,-0.7797,0.3081,-1.639,0.6618v0.6459c0.7365,-0.3172,1.4419,-0.5841,1.6796,-0.6824c0.2341,-0.0929,0.1925,-0.1228,0.1982,-0.3443C16.0027,11.8507,15.9253,11.8157,15.7558,11.8814zM7.2219,13.135c0.8945,0.5238,1.7484,1.047,2.6447,1.5675c0.2281,0.1208,0.2411,0.087,0.4167,0.0154c0.2741,-0.1118,1.092,-0.4476,2.0741,-0.8268v-0.6438c-0.982,0.3905,-1.8186,0.7254,-1.9444,0.7768c-0.4376,0.1834,-0.2957,0.1886,-0.6964,-0.0488c-0.6348,-0.3531,-2.2767,-1.3474,-2.5026,-1.4787c-0.2259,-0.1313,-0.1921,0.0266,-0.1921,0.3056C7.0218,13.0156,7.0713,13.0458,7.2219,13.135zM15.7558,13.0572c-0.0629,0.0244,-0.7797,0.3081,-1.639,0.6618v0.6459c0.7365,-0.3172,1.4419,-0.5841,1.6796,-0.6824c0.2341,-0.0929,0.1925,-0.1228,0.1982,-0.3443C16.0027,13.0264,15.9253,12.9915,15.7558,13.0572z" fill="#FFFFFF"/>
    </g>
  </g>
</svg>
