<?xml version="1.0" encoding="UTF-8"?>
<!DOCTYPE svg PUBLIC "-//W3C//DTD SVG 1.1//EN" "http://www.w3.org/Graphics/SVG/1.1/DTD/svg11.dtd">
<svg version="1.1" id="Layer_1" xmlns="http://www.w3.org/2000/svg" xmlns:xlink="http://www.w3.org/1999/xlink" x="0px" y="0px" width="16px" height="16px" viewBox="0 0 16 16" enable-background="new 0 0 16 16" xml:space="preserve">
  <g id="icon">
    <path d="M10.944,7.38c-0.167,0.003,-0.298,0.135,-0.284,0.309c0.014,0.171,0.122,0.692,0.161,0.859c0.009,0.037,0.07,0.095,0.087,0.088c0.145,-0.064,0.301,-0.118,0.417,-0.224c0.044,-0.04,-0.072,-0.56,-0.082,-0.67c-0.004,-0.043,-0.014,-0.085,-0.023,-0.128C11.185,7.447,11.072,7.394,10.944,7.38zM15.74,11.373c0.249,0.001,0.275,-0.013,0.219,-0.277c-0.1,-0.472,-0.271,-1.086,-0.411,-1.545c-0.055,-0.18,-0.182,-0.386,-0.328,-0.468c-0.298,-0.168,-0.624,-0.285,-0.949,-0.377c-0.713,-0.201,-1.444,-0.266,-2.178,-0.289c-0.266,-0.009,-0.531,-0.037,-0.747,0.188c-0.02,0.02,-0.049,0.03,-0.075,0.041c-0.182,0.08,-0.227,0.114,-0.417,0.161c-0.131,0.033,-0.412,0.05,-0.552,0.05c-1.438,0,-2.875,0.004,-4.313,0.006c-0.042,0,-0.084,-0.013,-0.126,-0.02c-0.004,-0.019,-0.009,-0.038,-0.013,-0.057c0.27,-0.173,0.54,-0.346,0.809,-0.52c0.491,-0.317,0.985,-0.629,1.472,-0.954c0.152,-0.101,0.175,-0.306,0.078,-0.458c-0.095,-0.148,-0.249,-0.178,-0.402,-0.079c-0.962,0.622,-1.924,1.246,-2.89,1.861c-0.092,0.059,-0.209,0.089,-0.317,0.097c-0.889,0.066,-1.776,0.134,-2.626,0.468c-0.617,0.243,-1.176,0.581,-1.562,1.183c-0.134,0.209,-0.283,0.601,-0.377,0.839c-0.04,0.102,-0.012,0.175,0.117,0.173c0.485,-0.007,0.97,-0.006,1.454,-0.002c0.123,0.001,0.2,-0.016,0.281,-0.128c0.386,-0.53,0.966,-0.956,1.6,-0.968c0.495,-0.009,0.939,0.175,1.287,0.538c0.227,0.237,0.456,0.517,0.561,0.825c0.107,0.311,0.074,0.61,0.079,0.954c0.004,0.305,0.328,0.338,0.482,0.338c1.618,0.001,3.012,-0.009,4.68,-0.007c0.319,0,0.332,0.003,0.313,-0.349c-0.026,-0.488,0.083,-1.012,0.314,-1.417c0.334,-0.583,0.851,-0.823,1.472,-0.875c0.657,-0.055,1.268,0.371,1.679,0.931c0.1,0.137,0.264,0.15,0.422,0.144C15.097,11.365,15.419,11.371,15.74,11.373zM1.561,10.512c-0.195,0.205,-0.457,0.26,-0.586,0.122c-0.129,-0.138,-0.076,-0.415,0.119,-0.62c0.195,-0.205,0.457,-0.26,0.586,-0.122C1.81,10.03,1.756,10.307,1.561,10.512zM14.968,9.551c0.307,0.009,0.347,0.168,0.417,0.469c0.07,0.301,0.17,0.63,-0.162,0.621c-0.332,-0.009,-0.347,-0.168,-0.417,-0.469C14.735,9.871,14.661,9.542,14.968,9.551zM1.63,11.767c-0.015,0.254,-0.028,0.65,-0.029,0.904c-0.001,0.149,-0.038,0.211,-0.185,0.208c-0.406,-0.009,-0.812,-0.005,-1.217,0.004c-0.144,0.003,-0.205,-0.044,-0.197,-0.214c0.011,-0.242,0.005,-0.627,0.001,-0.87c-0.002,-0.135,0.045,-0.192,0.17,-0.188c0.22,0.006,0.44,0.002,0.659,0.002c0,-0.001,0,-0.001,0,-0.002c0.22,0,0.439,0.001,0.659,0C1.587,11.611,1.637,11.647,1.63,11.767zM15.96,11.746c-0.103,0.567,-0.51,1.05,-1.032,1.123c-0.123,0.017,-0.175,-0.021,-0.176,-0.166c-0.002,-0.272,-0.016,-0.685,-0.031,-0.958c-0.006,-0.107,0.035,-0.148,0.126,-0.148c0.157,0.001,0.314,0,0.472,0c0,-0.003,0,-0.005,0,-0.008c0.152,0,0.37,0.006,0.521,-0.002C15.952,11.582,15.979,11.638,15.96,11.746zM3.501,10.649c-0.927,0.007,-1.554,0.786,-1.576,1.639c-0.002,0.889,0.719,1.67,1.554,1.662c0.841,-0.009,1.558,-0.674,1.563,-1.655C5.046,11.357,4.287,10.643,3.501,10.649zM3.482,12.829c-0.274,0,-0.496,-0.236,-0.496,-0.528s0.222,-0.528,0.496,-0.528c0.274,0,0.496,0.236,0.496,0.528S3.756,12.829,3.482,12.829zM12.785,10.649c-0.927,0.007,-1.554,0.786,-1.576,1.639c-0.002,0.889,0.719,1.67,1.554,1.662c0.841,-0.009,1.558,-0.674,1.563,-1.655C14.33,11.357,13.571,10.643,12.785,10.649zM12.768,12.829c-0.274,0,-0.496,-0.236,-0.496,-0.528s0.222,-0.528,0.496,-0.528c0.274,0,0.496,0.236,0.496,0.528S13.042,12.829,12.768,12.829z" fill="#FFFFFF"/>
  </g>
</svg>
