<?xml version="1.0" encoding="UTF-8"?>
<!DOCTYPE svg PUBLIC "-//W3C//DTD SVG 1.1//EN" "http://www.w3.org/Graphics/SVG/1.1/DTD/svg11.dtd">
<svg version="1.1" id="Layer_1" xmlns="http://www.w3.org/2000/svg" xmlns:xlink="http://www.w3.org/1999/xlink" x="0px" y="0px" width="16px" height="16px" viewBox="0 0 16 16" enable-background="new 0 0 16 16" xml:space="preserve">
  <g id="icon">
    <path d="M15.979,5.667c-0.058,-0.477,-0.395,-0.475,-0.726,-0.479c-0.088,-0.001,-0.067,-0.001,-0.155,-0.001c-0.668,-0.003,-0.77,1.023,-0.816,0.763c-0.844,-4.118,-3.46,-3.989,-6.287,-3.981c-2.827,-0.007,-5.443,-0.136,-6.287,3.981c-0.046,0.26,-0.148,-0.767,-0.816,-0.763c-0.088,0,-0.067,0,-0.155,0.001c-0.331,0.005,-0.668,0.002,-0.726,0.479c-0.059,0.486,0.115,0.769,0.564,0.915c0.304,0.098,0.391,0.191,0.698,0.288C0.91,8.563,0.986,10.429,1.4,11.742c0.151,0.307,0.252,0.577,0.24,0.91c-0.009,0.251,-0.012,0.607,-0.026,0.858c-0.023,0.414,0.021,0.8,0.43,0.987c0.407,0.186,1.502,0.05,1.67,-0.213c0.085,-0.133,0.123,-0.315,0.141,-0.48c0.023,-0.212,0.006,-0.534,0.006,-0.79c1.315,0,2.619,0,3.924,0c0.14,0,0.28,0,0.42,0c1.306,0,2.609,0,3.924,0c0,0.256,-0.018,0.578,0.006,0.79c0.018,0.165,0.056,0.347,0.141,0.48c0.168,0.263,1.316,0.4,1.724,0.213c0.409,-0.187,0.453,-0.573,0.43,-0.987c-0.014,-0.251,-0.017,-0.607,-0.026,-0.858c-0.012,-0.333,0.089,-0.603,0.24,-0.91c0.414,-1.313,0.437,-3.18,0.073,-4.873c0.307,-0.096,0.394,-0.189,0.698,-0.288C15.865,6.437,16.039,6.153,15.979,5.667zM3.674,10.797c-0.87,0,-1.576,-0.423,-1.576,-0.944c0,-0.521,-0.082,-0.944,0.788,-0.944c0.87,0,2.364,0.621,2.364,1.143S4.545,10.797,3.674,10.797zM7.995,7.008c-1.04,0,-5.269,0.091,-5.269,-0.454c0.137,-2.114,1.14,-3.659,3.786,-3.634c0.883,-0.052,1.281,-0.056,1.483,-0.046c0.202,-0.011,0.599,-0.007,1.483,0.046c2.646,-0.025,3.649,1.521,3.786,3.634C13.264,7.098,9.035,7.008,7.995,7.008zM13.892,9.853c0,0.521,-0.706,0.944,-1.576,0.944s-1.576,-0.224,-1.576,-0.745s1.494,-1.143,2.364,-1.143C13.975,8.908,13.892,9.331,13.892,9.853z" fill="#FFFFFF"/>
  </g>
</svg>
