<?xml version="1.0" encoding="UTF-8"?>
<!DOCTYPE svg PUBLIC "-//W3C//DTD SVG 1.1//EN" "http://www.w3.org/Graphics/SVG/1.1/DTD/svg11.dtd">
<svg version="1.1" id="Layer_1" xmlns="http://www.w3.org/2000/svg" xmlns:xlink="http://www.w3.org/1999/xlink" x="0px" y="0px" width="32px" height="32px" viewBox="0 0 32 32" enable-background="new 0 0 32 32" xml:space="preserve">
  <g id="main">
    <clipPath id="clip_mask">
      <path d="M16.2901,31.0616l4.7816,-5.9404l-1.9972,-2.0257c-0.5411,-0.5488,-0.5366,-1.4374,0.0101,-1.9806l0.8202,-0.8154c0.2655,-0.2641,0.6182,-0.4096,0.993,-0.4096c0.2571,0,0.5092,0.0705,0.729,0.2037c0.7706,0.4673,1.3248,0.6342,1.5669,0.6354c0.2484,-0.2457,0.5281,-0.5151,0.8229,-0.799c0.3876,-0.3734,0.8265,-0.7961,1.2938,-1.2604c0.0274,-0.0817,0.029,-0.3054,0.03,-0.4558c0.0033,-0.4638,0.0083,-1.1646,0.5448,-1.698c0.3428,-0.3408,0.771,-0.5208,1.2385,-0.5208c0.6386,0,1.1205,0.3486,1.2105,0.4185l0.0487,0.0378l2.1117,2.1007L32,20.0475V0H0v32h16.0183C15.9741,31.676,16.0677,31.3379,16.2901,31.0616z" fill-rule="evenodd"/>
    </clipPath>
    <g id="icon" clip-path="url(#clip_mask)">
      <g id="transformed_icon" transform="translate(-1 -1)">
        <path d="M27.7,30.5H4.3c-0.4418,0,-0.8,-0.3582,-0.8,-0.8V2.3c0,-0.4418,0.3582,-0.8,0.8,-0.8h23.4c0.4418,0,0.8,0.3582,0.8,0.8v27.4C28.5,30.1418,28.1418,30.5,27.7,30.5z" fill="none" stroke="#FFFFFF" stroke-width="1" stroke-miterlimit="1"/>
        <rect x="6.5" y="19.5" width="19" height="8" fill="none" stroke="#FFFFFF" stroke-width="1" stroke-miterlimit="1"/>
        <path d="M25.4875,7H6.5125C6.2295,7,6,6.7705,6,6.4875v-0.975C6,5.2295,6.2295,5,6.5125,5h18.975c0.283,0,0.5125,0.2295,0.5125,0.5125v0.975C26,6.7705,25.7705,7,25.4875,7z" fill="#FFFFFF"/>
        <path d="M7.5,9.5h10M7.5,11.5h6.9M7.5,13.5h10" fill="none" stroke="#FFFFFF" stroke-width="1" stroke-linecap="round" stroke-miterlimit="1"/>
        <path d="M20.5,9.5h4M20.5,11.5h4M20.5,13.5h4" fill="none" stroke="#FFFFFF" stroke-width="1" stroke-linecap="round" stroke-miterlimit="1"/>
        <line x1="19.5" y1="16.5" x2="25" y2="16.5" fill="none" stroke="#FFFFFF" stroke-width="1" stroke-linecap="round" stroke-miterlimit="1"/>
        <path d="M8.4609,25.9095c-0.0855,0,-0.1788,-0.0127,-0.2698,-0.0368c-0.121,-0.0319,-0.2055,-0.106,-0.2318,-0.203c-0.0258,-0.0949,0.0066,-0.1939,0.0911,-0.2789c0.1137,-0.1143,0.2476,-0.2062,0.3771,-0.2951l0.069,-0.0476c0.0932,-0.0648,0.1894,-0.1317,0.3028,-0.1562c0.2933,-0.0634,0.3444,-0.2295,0.3436,-0.5551c-0.001,-0.3706,0.0849,-0.7403,0.2553,-1.0988c0.1699,-0.3575,0.4304,-0.612,0.7963,-0.7778c0.0656,-0.0297,0.1418,-0.0454,0.2207,-0.0454c0.1584,0,0.3117,0.0634,0.4,0.1655c0.23,0.2657,0.1672,0.4817,0.0739,0.6162c-0.0871,0.1255,-0.1871,0.2417,-0.2838,0.3539l-0.0599,0.0698c-0.1095,0.1282,-0.211,0.2402,-0.3104,0.3424c-0.0527,0.0541,-0.1182,0.0987,-0.1845,0.1256c-0.012,0.0048,-0.0247,0.0073,-0.0378,0.0073c-0.0676,0,-0.1411,-0.0745,-0.1548,-0.0945c-0.0187,-0.0274,-0.023,-0.0598,-0.0118,-0.089c0.0275,-0.0712,0.0602,-0.1451,0.113,-0.2045c0.0944,-0.1062,0.1923,-0.2124,0.2871,-0.3152c0.1125,-0.122,0.2224,-0.2412,0.3278,-0.3607c0.0409,-0.0464,0.0635,-0.1022,0.059,-0.1458c-0.0028,-0.0259,-0.0145,-0.0458,-0.037,-0.0625c-0.0496,-0.0369,-0.1364,-0.0627,-0.2112,-0.0627c-0.025,0,-0.0469,0.0028,-0.065,0.0083c-0.2503,0.0757,-0.4435,0.2529,-0.5906,0.5418c-0.1926,0.3782,-0.2917,0.8922,-0.2498,1.2771c0.0525,-0.0236,0.105,-0.047,0.1573,-0.0703c0.1918,-0.0855,0.3901,-0.174,0.5805,-0.2676c0.1771,-0.087,0.3557,-0.1798,0.5283,-0.2695c0.1661,-0.0863,0.3536,-0.1838,0.5361,-0.2734l0.0185,-0.0092c0.0529,-0.0266,0.1191,-0.0597,0.1894,-0.0597c0.0725,0,0.1702,0.0344,0.2238,0.1985l0.0275,0.0845l-0.0841,0.0287c-0.2432,0.0828,-0.3784,0.28,-0.5214,0.4888c-0.0312,0.0455,-0.0617,0.0899,-0.0932,0.1332c-0.0084,0.0115,-0.0136,0.0328,-0.0177,0.0568c0.0002,0,0.0004,0,0.0006,0c0.034,0,0.0448,-0.0042,0.0479,-0.0061c0.0789,-0.0471,0.1604,-0.093,0.2392,-0.1375c0.414,-0.2332,0.8051,-0.4535,0.9937,-0.9123c0.0281,-0.0685,0.1044,-0.0868,0.1658,-0.1015c0.0184,-0.0044,0.0369,-0.0087,0.051,-0.0139l0.1046,-0.0386l0.0157,0.1104c0.0019,0.0137,0.0061,0.029,0.0104,0.0453c0.0136,0.0515,0.0304,0.1154,0.0004,0.1742c-0.052,0.1017,-0.1083,0.2011,-0.1647,0.2983c0.2615,-0.1842,0.5229,-0.3684,0.7842,-0.5529c0.0081,-0.0057,0.0163,-0.0134,0.025,-0.0214c0.0238,-0.0219,0.0529,-0.0486,0.094,-0.0621c0.0485,-0.016,0.0983,-0.0223,0.1422,-0.0279c0.0214,-0.0028,0.0363,-0.0047,0.051,-0.0071l0.0899,-0.0145l0.0135,0.0899c0.0026,0.0173,0.0073,0.0357,0.0121,0.0551c0.0139,0.0558,0.0297,0.119,0.0102,0.1829c-0.0257,0.0842,-0.065,0.1615,-0.103,0.2363c-0.0104,0.0205,-0.0207,0.0407,-0.0307,0.0611l0.0082,-0.0055c0.2285,-0.1547,0.4415,-0.2988,0.6553,-0.4339c0.0603,-0.0381,0.1308,-0.0434,0.193,-0.048c0.0244,-0.0019,0.0462,-0.0034,0.0667,-0.0069l0.0912,-0.0154l0.0128,0.0917c0.003,0.0213,0.0085,0.0436,0.0143,0.0673c0.0159,0.0655,0.0337,0.1393,0.0098,0.2109c-0.0319,0.0958,-0.0762,0.186,-0.119,0.2731c-0.0309,0.063,-0.0608,0.1241,-0.0853,0.1843c-0.0207,0.0508,-0.0341,0.1067,-0.0489,0.1707l0.299,-0.0285l-0.0546,0.137c-0.0631,0.158,-0.1601,0.2381,-0.2882,0.2381c-0.0319,0,-0.0657,-0.0053,-0.1005,-0.0158c-0.0958,-0.0289,-0.1662,-0.0832,-0.2032,-0.1569s-0.0387,-0.1626,-0.0047,-0.2569c0.0381,-0.1055,0.0822,-0.208,0.1248,-0.3071c0.0185,-0.043,0.0369,-0.0859,0.0549,-0.129l-0.0841,0.0655c-0.1972,0.1537,-0.3951,0.3079,-0.5937,0.4552l-0.0195,0.0146c-0.0941,0.0703,-0.2005,0.1497,-0.2937,0.1498c-0.0207,0,-0.0403,-0.0038,-0.0583,-0.0114c-0.0663,-0.028,-0.1101,-0.069,-0.1303,-0.1222c-0.0331,-0.0869,0.0079,-0.1728,0.0407,-0.2417c0.0122,-0.0256,0.0238,-0.0499,0.0291,-0.0688c0.0131,-0.0462,0.0289,-0.0922,0.0442,-0.1367c0.0094,-0.0272,0.0189,-0.0548,0.028,-0.0831c-0.0533,0.0334,-0.1058,0.068,-0.1544,0.1049c-0.1202,0.0912,-0.241,0.186,-0.3579,0.2777c-0.1506,0.1183,-0.3053,0.2397,-0.4612,0.3553c-0.0464,0.0345,-0.1193,0.0468,-0.172,0.0468c-0.0239,0,-0.0968,0,-0.1326,-0.0561c-0.0274,-0.0429,-0.0406,-0.0903,-0.0496,-0.1381l-0.0522,0.0309c-0.141,0.0835,-0.2867,0.1698,-0.4336,0.2528c-0.0843,0.0476,-0.1738,0.088,-0.266,0.1202c-0.0916,0.0319,-0.161,0.0467,-0.2186,0.0467c-0.0695,0,-0.1261,-0.0219,-0.1683,-0.0651c-0.0471,-0.0483,-0.0734,-0.1183,-0.0834,-0.2263c-0.0987,0.0676,-0.1892,0.1294,-0.2807,0.1895c-0.0542,0.0357,-0.1133,0.0746,-0.182,0.0793c-0.0066,0.0004,-0.013,0.0007,-0.0194,0.0007c-0.0486,0,-0.0944,-0.0123,-0.1348,-0.0231c-0.0174,-0.0046,-0.0335,-0.009,-0.0497,-0.0124l-0.103,-0.0212l0.0369,-0.0986c0.0053,-0.014,0.0095,-0.0288,0.0138,-0.0436c0.008,-0.0279,0.0163,-0.0568,0.0285,-0.0844c-0.1481,0.07,-0.2987,0.1422,-0.4457,0.2177c-0.0066,0.0104,-0.0179,0.0383,-0.0175,0.0595c0.0098,0.5533,-0.3269,0.8792,-0.948,0.9177C8.4962,25.909,8.4786,25.9095,8.4609,25.9095zM8.3164,25.5804c0.0071,0.003,0.0159,0.0063,0.0267,0.0097c0.0514,0.0165,0.1048,0.0248,0.1587,0.0248c0.1519,0,0.3048,-0.0672,0.4196,-0.1843c0.0915,-0.0934,0.1525,-0.2114,0.176,-0.3385c-0.0388,0.0151,-0.0734,0.0299,-0.1037,0.0486c-0.2308,0.1424,-0.4559,0.2829,-0.672,0.4358C8.3198,25.5778,8.3181,25.5791,8.3164,25.5804zM15.326,25.1222c0.012,-0.0226,0.0225,-0.0475,0.0336,-0.0737c0.0276,-0.0654,0.0589,-0.1395,0.1195,-0.1909c0.3782,-0.3213,0.7664,-0.6436,1.1418,-0.9552c0,0,0.3339,-0.2772,0.4824,-0.4009l-0.0016,0.0001c-0.1919,0.0202,-0.3515,0.037,-0.5151,0.0512l-0.0453,0.0045c-0.0456,0.0048,-0.089,0.0092,-0.1318,0.0092c-0.0529,0,-0.098,-0.0068,-0.1378,-0.0208l-0.0118,-0.0041c-0.1417,-0.0497,-0.3176,-0.1113,-0.3752,-0.2413c-0.0595,-0.1343,-0.0031,-0.3519,0.087,-0.4708c0.3813,-0.5035,0.8613,-0.8831,1.4269,-1.1281c0.2437,-0.1056,0.4987,-0.1894,0.7452,-0.2704c0.1072,-0.0352,0.2181,-0.0716,0.3261,-0.1092c0.0249,-0.0086,0.0541,-0.0178,0.0869,-0.0178l0.1176,-0.0007c0.1078,0,0.332,0,0.3851,0.2149c0.0314,0.1273,-0.0716,0.2704,-0.2361,0.4459c-0.0652,0.0697,-0.143,0.1222,-0.2182,0.173c-0.0517,0.0349,-0.1045,0.0705,-0.1494,0.1096c-0.0523,0.0456,-0.0966,0.1044,-0.1435,0.1667c-0.0188,0.025,-0.0333,0.0442,-0.0481,0.0631c-0.0178,0.0227,-0.0329,0.0479,-0.0487,0.0747c-0.0093,0.0155,-0.0171,0.0285,-0.0252,0.0413l-0.1068,0.1685l-0.0557,-0.1915c-0.0051,-0.0175,-0.013,-0.0364,-0.0214,-0.0564c-0.0257,-0.0621,-0.0548,-0.1323,-0.0288,-0.2025c0.0317,-0.0854,0.0986,-0.1707,0.1987,-0.2534c0.0757,-0.0625,0.1551,-0.1211,0.2318,-0.1779c0.0869,-0.0643,0.1725,-0.1275,0.2512,-0.1939c0.0025,-0.0046,0.0091,-0.0312,0.009,-0.0621c-0.0076,-0.0041,-0.0178,-0.0088,-0.0229,-0.0096h-0.022c-0.0781,0,-0.1686,0.0031,-0.2463,0.0262c-0.9386,0.2782,-1.5625,0.6544,-2.0228,1.2198c-0.0097,0.012,-0.0207,0.0234,-0.0317,0.0349c-0.01,0.0103,-0.0249,0.0256,-0.0276,0.032c-0.0105,0.0296,-0.0243,0.0615,-0.0377,0.0923c-0.0172,0.0396,-0.0575,0.1324,-0.0507,0.1571c0.0128,0.0205,0.113,0.0628,0.2145,0.0628l0.0094,-0.0001c0.2269,-0.007,0.46,-0.0374,0.6854,-0.0668l0.0979,-0.0127c0.0302,-0.0039,0.0568,-0.0057,0.0815,-0.0057c0.1595,0,0.2682,0.0783,0.342,0.2463l0.0282,0.064l-1.5596,1.2194c0.2808,-0.1576,0.5709,-0.3207,0.8544,-0.4839l0.1113,-0.0638c0.3593,-0.2053,0.7309,-0.4175,1.0077,-0.7407c0.0527,-0.0615,0.138,-0.0668,0.2132,-0.0715c0.0257,-0.0016,0.05,-0.003,0.071,-0.0069l0.1765,-0.0325l-0.0792,0.1608c-0.009,0.0181,-0.0166,0.0379,-0.0247,0.0588c-0.0227,0.0589,-0.0475,0.1236,-0.0999,0.1702c-0.253,0.2254,-0.342,0.3313,-0.3856,0.4959c0.0188,-0.0137,0.036,-0.0271,0.0521,-0.0411c0.141,-0.1231,0.2814,-0.2469,0.4218,-0.3707l0.0275,-0.0243c0.2242,-0.1978,0.4561,-0.4021,0.6865,-0.6006c0.0667,-0.0575,0.1642,-0.0661,0.2164,-0.0661l0.0181,0.0004c0.0853,0.0033,0.1383,0.1161,0.144,0.1289c0.0115,0.0258,0.014,0.0475,0.0115,0.0655c0.1541,-0.1295,0.3387,-0.2449,0.5623,-0.3524c0.0545,-0.0262,0.1045,-0.0389,0.1529,-0.0389c0.1417,0,0.2177,0.1069,0.2732,0.185c0.0118,0.0166,0.0216,0.0304,0.0317,0.0433c0.0607,0.0773,0.0101,0.1933,-0.057,0.3259c-0.0206,0.0406,-0.0433,0.0795,-0.0667,0.1173c0.3935,-0.2246,0.7024,-0.5068,0.9408,-0.8589c0.0409,-0.0604,0.108,-0.0886,0.1672,-0.1135c0.0217,-0.0091,0.042,-0.0176,0.0599,-0.0273l0.1473,-0.081l-0.0143,0.1675c-0.0016,0.0188,-0.0014,0.0388,-0.0013,0.06c0.0002,0.0577,0.0005,0.123,-0.03,0.1825c-0.0576,0.1122,-0.1213,0.2222,-0.1847,0.3293c0.1741,-0.1339,0.354,-0.2723,0.5365,-0.4053c0.0535,-0.0392,0.1132,-0.0596,0.1709,-0.0793c0.0224,-0.0076,0.0447,-0.0152,0.066,-0.024l0.1013,-0.0416l0.0213,0.1073c0.0041,0.0203,0.0088,0.0406,0.0136,0.0608c0.0133,0.0562,0.0262,0.1107,0.0293,0.1691c0.0048,0.0892,0.004,0.1782,0.003,0.2723c0.186,-0.0933,0.3124,-0.2394,0.4351,-0.3812c0.0498,-0.0576,0.1063,-0.1229,0.165,-0.1815c0.0292,-0.0291,0.058,-0.0585,0.0867,-0.088c0.091,-0.0932,0.1794,-0.1838,0.277,-0.2639c0.0694,-0.0569,0.1514,-0.0871,0.2369,-0.0871c0.13,0,0.2522,0.0703,0.3268,0.188c0.2066,0.3259,0.0966,0.9015,-0.2141,1.1198c-0.0596,0.0419,-0.133,0.0514,-0.1919,0.0591c-0.023,0.0031,-0.0425,0.0056,-0.0596,0.0095l-0.1919,0.0439l0.0922,-0.1739l0.0848,-0.1583c0.0724,-0.1347,0.1381,-0.2569,0.1971,-0.3786c0.0117,-0.0243,0.0152,-0.066,0.0076,-0.0909c-0.022,-0.0722,-0.0535,-0.1455,-0.0838,-0.2163l-0.0012,-0.0028l-0.0005,0.0002c-0.059,0.0295,-0.1146,0.0573,-0.154,0.0945c-0.1092,0.1036,-0.2168,0.2121,-0.3208,0.317c-0.1441,0.1454,-0.2928,0.2954,-0.4482,0.4349c-0.0769,0.0689,-0.2159,0.1388,-0.3329,0.1388c-0.0317,0,-0.0605,-0.0052,-0.0858,-0.0156c-0.0993,-0.0406,-0.1383,-0.1589,-0.1761,-0.2733c-0.0106,-0.0321,-0.0193,-0.0586,-0.0288,-0.0823c-0.0078,-0.0196,-0.0125,-0.0394,-0.0156,-0.0595c-0.0271,0.018,-0.0513,0.0344,-0.0749,0.0516c-0.069,0.0503,-0.1377,0.1013,-0.2063,0.1522c-0.1434,0.1064,-0.2905,0.2156,-0.44,0.3174c-0.0556,0.0379,-0.1209,0.0476,-0.1786,0.0561c-0.0219,0.0033,-0.0425,0.0063,-0.0618,0.0108l-0.1014,0.024c0,0,-0.019,-0.2154,-0.0215,-0.243c-0.0285,0.0192,-0.0567,0.0384,-0.0849,0.0575c-0.1711,0.116,-0.3318,0.2249,-0.5026,0.3268c-0.095,0.0567,-0.2138,0.0905,-0.3176,0.0905c-0.0147,0,-0.0292,-0.0007,-0.0433,-0.002c-0.0862,-0.0082,-0.1063,-0.0912,-0.1336,-0.2177c-0.0771,0.0507,-0.1637,0.1061,-0.2609,0.1398c-0.1022,0.0355,-0.2505,0.0827,-0.3579,0.0828h0c-0.0654,0,-0.1138,-0.0166,-0.148,-0.0505c-0.052,-0.0519,-0.0777,-0.1082,-0.0765,-0.1675c0.0021,-0.1013,0.0827,-0.1751,0.1475,-0.2344c0.0262,-0.024,0.0505,-0.0463,0.0655,-0.0657c0.018,-0.0232,0.0366,-0.0461,0.0559,-0.0685c-0.0488,0.0356,-0.0978,0.0703,-0.1467,0.105c-0.117,0.083,-0.238,0.1688,-0.3486,0.2623c-0.1526,0.129,-0.3043,0.2646,-0.4511,0.3957c-0.1453,0.1298,-0.2956,0.2641,-0.4474,0.3926c-0.0545,0.0461,-0.1505,0.0809,-0.2234,0.0809c-0.0376,0,-0.0695,-0.0089,-0.0946,-0.0264c-0.09,-0.0626,-0.1098,-0.2166,-0.0948,-0.301c0.0097,-0.055,0.0264,-0.1077,0.0471,-0.1627l-0.0338,0.0197c-0.1774,0.1032,-0.3376,0.1964,-0.4969,0.2871c-0.414,0.2356,-0.8278,0.4685,-1.2161,0.6869c-0.0366,0.0205,-0.0777,0.0328,-0.1159,0.0346c-0.0699,0.0034,-0.1408,0.0046,-0.2093,0.0058l-0.2296,0.0046L15.326,25.1222zM20.061,23.2831c-0.142,0.0529,-0.3104,0.1773,-0.4222,0.3113C19.8084,23.521,19.973,23.3997,20.061,23.2831z" fill="#FFFFFF"/>
      </g>
    </g>
    <g id="overlay">
      <path d="M31.8067,21.2651l-2.0172,-2.0043l-2.0679,-2.0572c0,0,-0.6234,-0.4835,-1.1312,0.0213c-0.5077,0.5048,0.0273,1.5551,-0.5608,2.1398c-0.8678,0.8628,-1.6202,1.5657,-2.1964,2.1386c-0.6196,0.616,-2.1135,-0.1837,-2.7247,-0.5544c-0.1601,-0.0971,-0.3661,-0.0721,-0.4987,0.0598l-0.8203,0.8155c-0.1578,0.1569,-0.1591,0.4108,-0.0029,0.5692l2.8696,2.9106l-0.0101,0.0099l0.5062,0.4933l0.4967,0.5038l0.0101,-0.0099l2.9275,2.8529c0.1594,0.1553,0.4148,0.154,0.5726,-0.0028l0.8203,-0.8155c0.1326,-0.1319,0.1578,-0.3366,0.0602,-0.4958c-0.3728,-0.6076,-1.1772,-2.0928,-0.5576,-2.7089c0.5762,-0.5729,1.2832,-1.3209,2.151,-2.1837c0.5881,-0.5847,1.6445,-0.0528,2.1522,-0.5575C32.293,21.8849,31.8067,21.2651,31.8067,21.2651z" fill-rule="evenodd" fill="#FFFFFF"/>
      <path d="M22.1153,25.4196l-5.0462,6.2691c-0.1635,0.2031,0.0273,0.4029,0.2329,0.2439l6.3846,-4.9417L22.1153,25.4196z" fill-rule="evenodd" fill="#FFFFFF"/>
    </g>
  </g>
</svg>
