<?xml version="1.0" encoding="UTF-8"?>
<!DOCTYPE svg PUBLIC "-//W3C//DTD SVG 1.1//EN" "http://www.w3.org/Graphics/SVG/1.1/DTD/svg11.dtd">
<svg version="1.1" id="Layer_1" xmlns="http://www.w3.org/2000/svg" xmlns:xlink="http://www.w3.org/1999/xlink" x="0px" y="0px" width="32px" height="32px" viewBox="0 0 32 32" enable-background="new 0 0 32 32" xml:space="preserve">
  <g id="main">
    <clipPath id="clip_mask">
      <path d="M18.1667,31.5294C18,30.9706,18,30.363,18,30v-8v-3l0.2706,-1c0.3465,-0.5968,0.9911,-1,1.7294,-1h11c0.3644,0,0.7058,0.0986,1,0.2698V0H0v32h18.3576C18.2818,31.8568,18.2176,31.6999,18.1667,31.5294z"/>
    </clipPath>
    <g id="icon" clip-path="url(#clip_mask)">
      <g id="transformed_icon" transform="translate(-1 -1)">
        <g>
          <path d="M5.9079,24.0867c-1.5036,0,-2.7226,1.2735,-2.7226,2.8445c0,1.5709,1.219,2.8445,2.7226,2.8445c1.5037,0,2.7226,-1.2735,2.7226,-2.8445C8.6305,25.3602,7.4116,24.0867,5.9079,24.0867zM5.9079,28.0275c-0.5795,0,-1.0493,-0.4908,-1.0493,-1.0963c0,-0.6055,0.4698,-1.0963,1.0493,-1.0963c0.5795,0,1.0493,0.4908,1.0493,1.0963C6.9573,27.5366,6.4875,28.0275,5.9079,28.0275z" fill="#FFFFFF"/>
          <path d="M25.5901,24.0867c-1.5037,0,-2.7226,1.2735,-2.7226,2.8445c0,1.5709,1.219,2.8445,2.7226,2.8445c1.5036,0,2.7226,-1.2735,2.7226,-2.8445C28.3127,25.3602,27.0937,24.0867,25.5901,24.0867zM25.5901,28.0275c-0.5795,0,-1.0493,-0.4908,-1.0493,-1.0963c0,-0.6055,0.4698,-1.0963,1.0493,-1.0963c0.5795,0,1.0493,0.4908,1.0493,1.0963C26.6394,27.5366,26.1696,28.0275,25.5901,28.0275z" fill="#FFFFFF"/>
        </g>
        <path d="M9.2964,14h-5.531c-0.3779,0,-0.3991,0.1824,-0.6842,0.6577c-0.2851,0.4753,-0.7524,1.831,-1.9498,4.267c-0.0887,0.1832,-0.1314,0.608,-0.1314,0.9279c0,2.4754,0,6.4573,0,6.4573c0,0.3938,0.3919,0.6901,0.7698,0.6901h0.432c-0.0007,0,-0.0043,-0.003,-0.0043,-0.0331c0,-2.1164,1.6466,-3.9042,3.6778,-3.9042c2.0385,0,3.6897,1.7423,3.6777,3.8692c0.0009,0.0005,0.0007,0.0004,0.0017,0.001c0.2197,-0.1342,0.4454,-0.429,0.4454,-0.723V14.6025C10,14.2087,9.6743,14,9.2964,14zM8.5,20H2.2v-1.0177L3.6911,15.4H8.5V20zM31,12.2971V27h-1.6872c0,-2.1782,-1.6482,-3.9499,-3.6813,-3.9499c-2.0331,0,-3.6813,1.7717,-3.6813,3.9499H11V12.2971c0,-0.7851,0.8243,-1.2971,1.575,-1.2971h17.1343C30.4599,11,31,11.512,31,12.2971z" fill="#FFFFFF"/>
      </g>
    </g>
    <g id="overlay">
      <path d="M31,31.5H20c-0.2761,0,-0.5,-0.2239,-0.5,-1.5V19.5h12v10.5C31.5,31.2761,31.2761,31.5,31,31.5z" fill="none" stroke="#FFFFFF" stroke-width="1" stroke-miterlimit="1"/>
      <path d="M32,21H19v-2c0,-0.5523,0.4477,-1,1,-1h11c0.5523,0,1,0.4477,1,1V21z" fill="#FFFFFF"/>
      <path d="M22,23h2M22,25h2M22,27h2M22,29h2" fill="none" stroke="#FFFFFF" stroke-width="1" stroke-linecap="round" stroke-miterlimit="1"/>
      <path d="M26,23h3.1M26,25h3.1M26,27h3.1M26,29h3.1" fill="none" stroke="#FFFFFF" stroke-width="1" stroke-linecap="round" stroke-miterlimit="1"/>
    </g>
  </g>
</svg>
