<?xml version="1.0" encoding="UTF-8"?>
<!DOCTYPE svg PUBLIC "-//W3C//DTD SVG 1.1//EN" "http://www.w3.org/Graphics/SVG/1.1/DTD/svg11.dtd">
<svg version="1.1" id="Layer_1" xmlns="http://www.w3.org/2000/svg" xmlns:xlink="http://www.w3.org/1999/xlink" x="0px" y="0px" width="32px" height="32px" viewBox="0 0 32 32" enable-background="new 0 0 32 32" xml:space="preserve">
  <g id="main">
    <clipPath id="clip_mask">
      <path d="M13,31.4048v-9.8096c0,-0.8796,0.7178,-1.5952,1.6,-1.5952h16.8c0.2122,0,0.4145,0.0423,0.6,0.1174V0H0v32h13.1167C13.0421,31.8159,13,31.6153,13,31.4048z" fill-rule="evenodd"/>
    </clipPath>
    <g id="icon" clip-path="url(#clip_mask)">
      <g id="transformed_icon" transform="translate(-1 -1)">
        <path d="M27.7,30.5H4.3c-0.4418,0,-0.8,-0.3582,-0.8,-0.8V2.3c0,-0.4418,0.3582,-0.8,0.8,-0.8h23.4c0.4418,0,0.8,0.3582,0.8,0.8v27.4C28.5,30.1418,28.1418,30.5,27.7,30.5z" fill="none" stroke="#FFFFFF" stroke-width="1" stroke-miterlimit="1"/>
        <rect x="6.5" y="21.5" width="19" height="6" fill="none" stroke="#FFFFFF" stroke-width="1" stroke-miterlimit="1"/>
        <path d="M25.4875,7H6.5125C6.2295,7,6,6.7705,6,6.4875v-0.975C6,5.2295,6.2295,5,6.5125,5h18.975c0.283,0,0.5125,0.2295,0.5125,0.5125v0.975C26,6.7705,25.7705,7,25.4875,7z" fill="#FFFFFF"/>
        <path d="M7.5,9.5h10M7.5,11.5h6.9M7.5,15.5h6.9M7.5,13.5h10" fill="none" stroke="#FFFFFF" stroke-width="1" stroke-linecap="round" stroke-miterlimit="1"/>
        <path d="M20.5,9.5h4M20.5,13.5h4M20.5,11.5h4M20.5,15.5h4" fill="none" stroke="#FFFFFF" stroke-width="1" stroke-linecap="round" stroke-miterlimit="1"/>
        <line x1="19.5" y1="18.5" x2="25" y2="18.5" fill="none" stroke="#FFFFFF" stroke-width="1" stroke-linecap="round" stroke-miterlimit="1"/>
      </g>
    </g>
    <g id="overlay">
      <path d="M22.106,25.0369c0.135,-0.1145,0.2684,-0.1851,0.5174,-0.2121v1.2432c-0.249,-0.0527,-0.4293,-0.1312,-0.5456,-0.2356c-0.1163,-0.1044,-0.1827,-0.234,-0.1827,-0.3889C21.8952,25.2869,21.9709,25.1514,22.106,25.0369zM23.4216,26.8382v1.3486c0.166,-0.0217,0.3501,-0.0976,0.5013,-0.2278c0.1512,-0.1302,0.2175,-0.2912,0.2175,-0.4831c0,-0.1635,-0.0384,-0.295,-0.1433,-0.3943C23.8921,26.9822,23.6706,26.9011,23.4216,26.8382zM25.8773,26.55c0,1.9606,-1.2912,3.55,-2.884,3.55s-2.884,-1.5894,-2.884,-3.55c0,-1.9606,1.2912,-3.55,2.884,-3.55S25.8773,24.5894,25.8773,26.55zM24.7657,27.4609c0,-0.1595,-0.0365,-0.3077,-0.1019,-0.4446c-0.0654,-0.137,-0.1558,-0.2552,-0.2775,-0.3546c-0.1216,-0.0994,-0.2759,-0.2346,-0.4556,-0.2993c-0.0942,-0.0332,-0.2811,-0.0808,-0.5091,-0.1426v-1.3595c0.152,0.0318,0.2684,0.0975,0.3761,0.1972c0.1077,0.0997,0.1648,0.243,0.1989,0.4301l0.6678,-0.1439c-0.0549,-0.3217,-0.2044,-0.5748,-0.4744,-0.7592c-0.2106,-0.1448,-0.4643,-0.2314,-0.7683,-0.2597v-0.3664H22.67l-0.0178,0.3506c-0.4617,0.035,-0.7555,0.1083,-0.9901,0.2636c-0.3508,0.2311,-0.5262,0.5315,-0.5262,0.9044c0,0.2097,0.0602,0.3963,0.1807,0.5614c0.1205,0.1651,0.2922,0.2939,0.515,0.387c0.3005,0.1263,0.5116,0.2166,0.7918,0.2714v1.4945c-0.2456,-0.0207,-0.393,-0.1219,-0.5838,-0.3033c-0.1331,-0.1284,-0.2253,-0.3297,-0.278,-0.6037l-0.7395,0.203c0.025,0.2645,0.1175,0.4884,0.2717,0.6716c0.1541,0.1833,0.3342,0.3159,0.546,0.3981c0.2117,0.0822,0.8976,0.1868,0.8976,0.1868v0.46h0.6842v-0.4496c0.3801,-0.0169,0.6715,-0.1806,0.9446,-0.4152C24.6393,28.1044,24.7657,27.8117,24.7657,27.4609zM32,21.5952v9.8096c0,0.3287,-0.2686,0.5952,-0.6,0.5952H14.6c-0.3314,0,-0.6,-0.2665,-0.6,-0.5952v-9.8096c0,-0.3287,0.2686,-0.5952,0.6,-0.5952h16.8C31.7314,21,32,21.2665,32,21.5952zM31,23.8488c-1.1189,-0.159,-1.7035,-0.7376,-1.8636,-1.8488H16.89c0,1.2012,-0.6805,1.875,-1.89,1.875v5.2762c1.1189,0.159,1.7035,0.7376,1.8636,1.8488H29.11c0,-1.2012,0.6805,-1.875,1.89,-1.875V23.8488z" fill="#FFFFFF"/>
    </g>
  </g>
</svg>
