<?xml version="1.0" encoding="UTF-8"?>
<!DOCTYPE svg PUBLIC "-//W3C//DTD SVG 1.1//EN" "http://www.w3.org/Graphics/SVG/1.1/DTD/svg11.dtd">
<svg version="1.1" id="Layer_1" xmlns="http://www.w3.org/2000/svg" xmlns:xlink="http://www.w3.org/1999/xlink" x="0px" y="0px" width="32px" height="32px" viewBox="0 0 32 32" enable-background="new 0 0 32 32" xml:space="preserve">
  <g id="icon">
    <g>
      <path d="M15.9341,7.9208c-0.1013,-0.5521,-0.1539,-1.0868,-0.1539,-1.5682c0,-0.3039,0.0234,-0.5943,0.0669,-0.8712c0.2284,-0.3789,0.4601,-0.8121,0.6104,-1.0227c1.361,0.8544,5.667,0.8083,6.9684,0c0.0746,0.3218,0.2993,0.8237,0.5423,1.1637c0.0302,0.2341,0.046,0.4776,0.046,0.7302c0,2.6341,-1.5692,6.8567,-4.1168,6.8567c-0.2988,0,-0.584,-0.0587,-0.8549,-0.1655c0.0739,0.4208,0.1302,0.8631,0.1684,1.3276c0.2126,0.0464,0.4303,0.0716,0.6532,0.0716c3.2566,0,5.5391,-5.1987,5.5391,-8.3336S24.3036,1,19.8886,1c-4.4645,0,-5.4773,1.9745,-5.4773,5.1093c0,0.379,0.0324,0.7884,0.0946,1.215C15.0239,7.4694,15.4999,7.6684,15.9341,7.9208z" fill-rule="evenodd" fill="#FFFFFF"/>
      <path d="M23.3649,23.82c-0.2052,-0.3881,-0.468,-0.7463,-0.8101,-1.0533c-0.7109,-0.638,-1.5857,-0.956,-2.3575,-1.2366l-0.0107,-0.0039c-0.3696,-0.1343,-0.7428,-0.2609,-1.1112,-0.3832c0.114,-0.5937,0.1783,-1.3862,0.2014,-2.4813c0.2014,0.1268,0.3827,0.1919,0.5391,0.1919c0.8631,0,2.712,-1.9436,4.28,-5.5624c0.1199,0.0502,0.2668,0.1194,0.4529,0.2072c6.2389,2.1624,5.7189,2.0929,6.4446,7.5077C31.2748,22.8652,26.7535,23.5601,23.3649,23.82zM15.4172,14.0565h-0.1358l-0.0084,0.1899c0.0132,0.0101,0.0269,0.0192,0.0409,0.0271l0.0854,-0.1514L15.4172,14.0565zM15.3845,14.1753l-0.0492,0.1092c0.011,0.0049,0.0173,0.0067,0.0174,0.0067L15.3845,14.1753z" fill-rule="evenodd" fill="#FFFFFF"/>
    </g>
    <g>
      <path d="M23.2624,28.1683c-0.2037,-1.459,-0.1784,-3.5831,-1.3754,-4.6574c-0.5696,-0.5112,-1.3345,-0.7877,-2.0419,-1.0449c-0.5513,-0.2004,-1.1093,-0.3826,-1.6666,-0.5656c-0.7259,-0.2384,-1.4484,-0.5606,-2.1772,-0.7717c0.5073,1.2977,0.8264,3.1693,0.9705,4.5538c0.0372,0.357,0.1626,0.9923,-0.0039,1.3393c-0.1394,0.2905,-0.3671,0.2549,-0.6817,0.2949c-1.3639,0.1731,-2.7305,0.26,-4.0993,0.2652c-1.3689,-0.0051,-2.7354,-0.0921,-4.0993,-0.2652c-0.3146,-0.0399,-0.5423,-0.0043,-0.6817,-0.2949c-0.1665,-0.3469,-0.0411,-0.9823,-0.0039,-1.3393c0.1446,-1.3894,0.4653,-3.266,0.9757,-4.5674c-0.2129,0.0478,-0.4424,0.1845,-0.6818,0.2745c-0.6765,0.2543,-1.3787,0.4518,-2.0647,0.6795c-0.9009,0.2992,-1.8519,0.579,-2.6736,1.0664c-1.342,0.7961,-1.5117,2.3124,-1.7167,3.7325c-0.1096,0.7593,-0.4051,1.7103,-0.0849,2.4575c0.2494,0.5821,0.8319,0.8999,1.4037,1.0962c0.9441,0.3241,1.9726,0.4089,2.9618,0.4761c1.5167,0.103,3.0397,0.1109,4.5592,0.119c3.0813,0.0163,6.2005,0.1113,9.2735,-0.162c1.2427,-0.1105,3.5057,-0.2456,3.891,-1.7677C23.3207,28.7879,23.3101,28.4711,23.2624,28.1683z" fill-rule="evenodd" fill="#FFFFFF"/>
      <path d="M18.2439,14.8781c-0.3119,-5.5462,-3.0696,-6.8484,-6.0572,-6.8484S6.479,9.332,6.1671,14.8781c-0.2415,9.2258,0.4885,7.5039,3.4647,6.1572c0.7426,0.7055,1.6028,1.1485,2.5531,1.1485c0.9513,0,1.8123,-0.444,2.5554,-1.1508C17.7301,22.3801,18.4856,24.1093,18.2439,14.8781zM12.221,21.0502c-2.5741,0,-4.0003,-4.4346,-4.0003,-7.3319c0,-1.4176,0.3474,0.6764,2.517,0.6764c1.3156,0,5.3936,-2.2631,5.3936,-0.3382C16.1314,18.5178,14.2744,21.0502,12.221,21.0502z" fill="#FFFFFF"/>
    </g>
  </g>
</svg>
