<?xml version="1.0" encoding="UTF-8"?>
<!DOCTYPE svg PUBLIC "-//W3C//DTD SVG 1.1//EN" "http://www.w3.org/Graphics/SVG/1.1/DTD/svg11.dtd">
<svg version="1.1" id="Layer_1" xmlns="http://www.w3.org/2000/svg" xmlns:xlink="http://www.w3.org/1999/xlink" x="0px" y="0px" width="32px" height="32px" viewBox="0 0 32 32" enable-background="new 0 0 32 32" xml:space="preserve">
  <g id="main">
    <clipPath id="clip_mask">
      <path d="M17.1801,31.0913c-0.7432,-0.4442,-1.5116,-0.9037,-2.2822,-1.355c-0.4446,-0.2632,-0.8745,-0.5931,-0.8745,-1.4922c0,-0.0592,-0.0009,-0.1152,-0.0018,-0.1677c-0.0052,-0.3313,-0.0116,-0.7373,0.2639,-1.0817c-0.1583,-0.2266,-0.2622,-0.5312,-0.2622,-0.9737c0,-0.0592,-0.0009,-0.1152,-0.0018,-0.1677c-0.0055,-0.3496,-0.0123,-0.7822,0.312,-1.1381c-0.269,-0.3827,-0.3103,-0.805,-0.3103,-1.1304c0,-0.0606,-0.001,-0.1158,-0.0018,-0.1655c-0.0048,-0.2859,-0.0113,-0.6711,0.2677,-1.0011c-0.1444,-0.1887,-0.2492,-0.4329,-0.2331,-0.7423c0.0405,-0.7766,0.7979,-1.0903,1.1213,-1.2243l0.0264,-0.01c0.0469,-0.0184,0.2511,-0.1029,0.5821,-0.2396c0.56,-0.2313,1.4726,-0.6082,2.5986,-1.0687l0.4619,-0.1889l0.068,0.0406c0.2327,-0.3307,0.615,-0.4978,0.8172,-0.5855c0.0269,-0.0117,0.0525,-0.0227,0.0752,-0.0331c0.2417,-0.1116,0.4766,-0.1969,0.7038,-0.2794c0.0925,-0.0336,0.1851,-0.0671,0.2769,-0.1024c0.2037,-0.0781,0.411,-0.1192,0.6173,-0.1259l0.6791,-0.2782c1.3133,-0.538,2.3358,-0.9474,2.8852,-1.1673c0.1958,-0.0784,0.32,-0.128,0.3598,-0.1446l0.0186,-0.0077l0.0188,-0.007c0.0484,-0.018,0.0895,-0.0343,0.125,-0.0483c0.1563,-0.0619,0.3508,-0.1389,0.6056,-0.1389c0.3798,0,0.6558,0.1703,0.8988,0.323l0.4794,0.2859c1.5328,0.9141,2.9823,1.7786,4.5248,2.7117V0H0v32h18.7055C18.19,31.6947,17.6799,31.3901,17.1801,31.0913z"/>
    </clipPath>
    <g id="icon" clip-path="url(#clip_mask)">
      <g id="transformed_icon" transform="translate(-1 -1)">
        <path d="M28.7,1H5.3c-0.718,0,-1.3,0.582,-1.3,1.3v27.4c0,0.718,0.582,1.3,1.3,1.3h23.4c0.718,0,1.3,-0.582,1.3,-1.3V2.3C30,1.582,29.418,1,28.7,1zM28,29H7H6H5v-2h1v-2H5v-2h1v-2H5v-2h1v-2H5v-2h1v-2H5v-2h1V9H5V7h1V5H5V3h1h1h21V29z" fill="#FFFFFF"/>
        <path d="M4,19v2H2v-2H4zM2,15v2h2v-2H2zM2,11v2h2v-2H2zM2,23v2h2v-2H2zM2,27v2h2v-2H2zM4,7v2H2V7H4zM4,3v2H2V3H4z" fill="#FFFFFF"/>
        <path d="M10.5,5.5h13" fill="none" stroke="#FFFFFF" stroke-width="1" stroke-linecap="round" stroke-miterlimit="1"/>
        <path d="M13.5,7.5h7" fill="none" stroke="#FFFFFF" stroke-width="1" stroke-linecap="round" stroke-miterlimit="1"/>
        <path d="M10.1569,17.1991c-0.0301,-0.0043,-0.057,-0.0213,-0.0737,-0.0464l-0.6634,-1.003c-0.021,-0.0317,-0.0186,-0.0635,-0.0153,-0.0797c0.0033,-0.0162,0.0135,-0.0463,0.0453,-0.0674l5.6614,-4.3468c0.1061,-0.0721,0.2496,-0.0512,0.3307,0.0481l2.7761,3.4158l3.8823,-2.7192l-0.7548,-1.0511c-0.1014,-0.1412,-0.017,-0.3395,0.155,-0.3644l3.9341,-0.5696c0.1807,-0.0262,0.3192,0.1572,0.2447,0.3239l-1.6669,3.7271c-0.073,0.1632,-0.2954,0.1857,-0.3997,0.0406l-0.6874,-0.9422l-4.7611,3.3265c-0.1061,0.0613,-0.2532,0.0425,-0.3366,-0.0582l-2.818,-3.412l-4.7847,3.7654C10.2085,17.1971,10.1819,17.2027,10.1569,17.1991z" fill="#FFFFFF"/>
        <path d="M13,26h-3v-6.5583c0,-0.2439,0.1977,-0.4417,0.4417,-0.4417h2.1167c0.2439,0,0.4417,0.1977,0.4417,0.4417V26zM17,26h-3v-7.5583c0,-0.2439,0.1977,-0.4417,0.4417,-0.4417h2.1167c0.2439,0,0.4417,0.1977,0.4417,0.4417V26zM21,26h-3v-5.5583c0,-0.2439,0.1977,-0.4417,0.4417,-0.4417h2.1167c0.2439,0,0.4417,0.1977,0.4417,0.4417V26zM25,26h-3v-9.5583c0,-0.2439,0.1977,-0.4417,0.4417,-0.4417h2.1167c0.2439,0,0.4417,0.1977,0.4417,0.4417V26z" fill="#FFFFFF"/>
      </g>
    </g>
    <g id="overlay">
      <path d="M27.7496,25.577c0,0.8511,0.0002,2.3056,-0.0001,3.1601c-0.0001,0.4576,-0.0834,0.5836,-0.4934,0.7546c-0.3365,0.1403,-0.6727,0.2797,-1.0123,0.4118c-0.4154,0.1616,-0.5632,-0.3895,-0.5632,-0.3895s-0.001,-3.4649,-0.0008,-4.8951c0,-0.2609,-0.0131,-0.5227,0.0019,-0.7826c0.0212,-0.3669,-0.1347,-0.603,-0.4448,-0.7869c-1.6317,-0.9671,-3.4665,-2.049,-5.0887,-3.0323c-0.164,-0.0994,-0.4292,-0.2649,-0.4292,-0.4046c0,-0.1397,0.3251,-0.2541,0.507,-0.3381c0.2981,-0.1376,0.6128,-0.2383,0.9199,-0.3561c0.2572,-0.0987,0.5016,-0.0814,0.7408,0.0622c1.7713,1.0638,3.7514,2.2321,5.5244,3.2931c0.2554,0.1529,0.3623,0.3798,0.36,0.6786c-0.007,0.8724,-0.0025,1.7738,-0.0025,2.6249C27.7623,25.577,27.7559,25.577,27.7496,25.577z" fill="#FFFFFF"/>
      <path d="M15.5602,21.3756c-0.0581,0.0282,1.2516,-0.5184,3.2029,-1.3165l5.9445,3.5434c-1.7622,0.7075,-3.0969,1.2236,-3.5668,1.4197c-0.5244,0.2411,-0.2682,0.2503,-0.7854,-0.057c-0.7821,-0.4599,-4.5057,-2.6801,-4.9633,-2.9284C14.9344,21.7885,14.898,21.6499,15.5602,21.3756zM31.5383,21.9891c-0.1189,0.0461,-1.4743,0.5826,-3.0991,1.2514v1.2213c1.3927,-0.5997,2.7265,-1.1044,3.1759,-1.2903c0.4427,-0.1757,0.364,-0.2321,0.3748,-0.651C32.0051,21.9309,31.8587,21.8649,31.5383,21.9891zM15.4018,24.3595c1.6913,0.9904,3.3059,1.9797,5.0008,2.9639c0.4312,0.2283,0.4558,0.1646,0.7879,0.0291c0.5183,-0.2114,2.0649,-0.8463,3.9218,-1.5633v-1.2174c-1.8569,0.7383,-3.4387,1.3717,-3.6767,1.4688c-0.8274,0.3467,-0.5592,0.3567,-1.3167,-0.0922c-1.2003,-0.6676,-4.305,-2.5477,-4.7322,-2.796c-0.4271,-0.2483,-0.3633,-0.095,-0.3633,0.4325C15.0234,23.9883,15.117,24.1908,15.4018,24.3595zM28.4198,22.1764c1.5066,-0.6054,2.661,-1.1137,3.0768,-1.2879c0.6266,-0.2661,0.6933,-0.2318,0.0584,-0.6017c-1.7307,-1.0473,-3.3442,-2.0081,-5.0815,-3.0442c-0.3966,-0.2494,-0.3502,-0.2027,-0.7597,-0.051c-0.1492,0.0622,-1.4401,0.5726,-3.2507,1.3143L28.4198,22.1764zM25.1123,29.0857c-1.8569,0.7383,-3.4387,1.3717,-3.6767,1.4688c-0.8274,0.3467,-0.5592,0.3567,-1.3167,-0.0922c-1.2003,-0.6676,-4.305,-2.5477,-4.7322,-2.796c-0.4271,-0.2483,-0.3633,0.0503,-0.3633,0.5779c0,0.4035,0.095,0.4606,0.3798,0.6293c1.6913,0.9904,3.3052,1.9797,5,2.9639c0.4312,0.2283,0.4555,0.1646,0.7876,0.0291c0.5183,-0.2114,2.0645,-0.8463,3.9214,-1.5633V29.0857zM31.5383,24.2798c-0.1189,0.0461,-1.4743,0.5826,-3.0991,1.2514v1.2214c1.3927,-0.5997,2.7265,-1.1044,3.1759,-1.2903c0.4427,-0.1757,0.364,-0.2321,0.3748,-0.651C32.0051,24.2217,31.8587,24.1557,31.5383,24.2798zM15.4018,26.6502c1.6913,0.9904,3.3059,1.9797,5.0008,2.9639c0.4312,0.2283,0.4558,0.1646,0.7879,0.0291c0.5183,-0.2114,2.0649,-0.8463,3.9218,-1.5633v-1.2174c-1.8569,0.7383,-3.4387,1.3717,-3.6767,1.4688c-0.8274,0.3467,-0.5592,0.3567,-1.3167,-0.0922c-1.2003,-0.6676,-4.305,-2.5477,-4.7322,-2.796c-0.4271,-0.2483,-0.3633,0.0503,-0.3633,0.5779C15.0234,26.4244,15.117,26.4816,15.4018,26.6502zM31.5383,26.5031c-0.1189,0.0461,-1.4743,0.5826,-3.0991,1.2514v1.2214c1.3927,-0.5997,2.7265,-1.1044,3.1759,-1.2903c0.4427,-0.1757,0.364,-0.2321,0.3748,-0.651C32.0051,26.4449,31.8587,26.3789,31.5383,26.5031z" fill="#FFFFFF"/>
    </g>
  </g>
</svg>
