<?xml version="1.0" encoding="UTF-8"?>
<!DOCTYPE svg PUBLIC "-//W3C//DTD SVG 1.1//EN" "http://www.w3.org/Graphics/SVG/1.1/DTD/svg11.dtd">
<svg version="1.1" id="Layer_1" xmlns="http://www.w3.org/2000/svg" xmlns:xlink="http://www.w3.org/1999/xlink" x="0px" y="0px" width="32px" height="32px" viewBox="0 0 32 32" enable-background="new 0 0 32 32" xml:space="preserve">
  <g id="icon">
    <path d="M27.7,1H6.3c-0.718,0,-1.3,0.582,-1.3,1.3v27.4c0,0.718,0.582,1.3,1.3,1.3h21.4c0.718,0,1.3,-0.582,1.3,-1.3V2.3C29,1.582,28.418,1,27.7,1zM27,29H8H7H6v-2h1v-2H6v-2h1v-2H6v-2h1v-2H6v-2h1v-2H6v-2h1V9H6V7h1V5H6V3h1h1h19V29z" fill="#FFFFFF"/>
    <path d="M5,19v2H3v-2H5zM3,15v2h2v-2H3zM3,11v2h2v-2H3zM3,23v2h2v-2H3zM3,27v2h2v-2H3zM5,7v2H3V7H5zM5,3v2H3V3H5z" fill="#FFFFFF"/>
    <path d="M10.5,5.5h8M10.5,8.5h8M10.5,11.5h8M10.5,14.5h8M10.5,17.5h8M10.5,20.5h8M10.5,23.5h8M10.5,26.5h8" fill="none" stroke="#FFFFFF" stroke-width="1" stroke-linecap="round" stroke-miterlimit="1"/>
    <path d="M21.5,5.5h3M21.5,11.5h3M21.5,20.5h3M21.5,26.5h3" fill="none" stroke="#FFFFFF" stroke-width="1" stroke-linecap="round" stroke-miterlimit="1"/>
    <path d="M21.5,8.5h3M21.5,14.5h3M21.5,17.5h3M21.5,23.5h3" fill="none" stroke="#FFFFFF" stroke-width="1" stroke-linecap="round" stroke-miterlimit="1"/>
  </g>
</svg>
