<?xml version="1.0" encoding="UTF-8"?>
<!DOCTYPE svg PUBLIC "-//W3C//DTD SVG 1.1//EN" "http://www.w3.org/Graphics/SVG/1.1/DTD/svg11.dtd">
<svg version="1.1" id="Layer_1" xmlns="http://www.w3.org/2000/svg" xmlns:xlink="http://www.w3.org/1999/xlink" x="0px" y="0px" width="32px" height="32px" viewBox="0 0 32 32" enable-background="new 0 0 32 32" xml:space="preserve">
  <g id="main">
    <clipPath id="clip_mask">
      <path d="M18,31.025v-1.05c0,-0.4772,0.1702,-0.9153,0.4529,-1.2571c-0.8609,-0.4347,-1.4529,-1.327,-1.4529,-2.3554v-6.725C17,18.1832,18.1832,17,19.6375,17h10.725c0.6184,0,1.1873,0.2145,1.6375,0.5722V0H0v32h18.2596C18.0953,31.712,18,31.3797,18,31.025z"/>
    </clipPath>
    <g id="icon" clip-path="url(#clip_mask)">
      <g id="transformed_icon" transform="translate(-1 -1)">
        <path d="M7,9v20.8c0,0.6627,0.5486,1.2,1.2114,1.2H22.775c0.6627,0,1.225,-0.5373,1.225,-1.2V9H7z" fill="#797979"/>
        <path d="M16.173,11.8229l-4.5772,8.9067c-0.0936,0.1722,0.0311,0.4091,0.2271,0.4091h3.1109l-0.3936,6.5455c-0.0144,0.2176,0.2785,0.3006,0.3804,0.1078l4.4491,-8.9714c0.091,-0.1722,-0.0338,-0.4091,-0.2285,-0.4091h-3.1164l0.4817,-6.4894C16.5218,11.7306,16.2647,11.6541,16.173,11.8229z" fill="#EAB765"/>
        <path d="M17.7,3.5h-4.4c-0.1657,0,-0.3,-0.1343,-0.3,-0.3V1.3c0,-0.1657,0.1343,-0.3,0.3,-0.3h4.4c0.1657,0,0.3,0.1343,0.3,0.3v1.9C18,3.3657,17.8657,3.5,17.7,3.5z" fill="#797979"/>
        <path d="M22.4,3H7.8c-0.26,0,-0.8,0.54,-0.8,1.2v4.8h17V4.2C24,3.54,23.46,3,22.4,3z" fill="#EAB765"/>
      </g>
    </g>
    <g id="overlay">
      <path d="M30.3625,18h-10.725c-0.9006,0,-1.6375,0.7369,-1.6375,1.6375v6.725c0,0.9006,0.7369,1.6375,1.6375,1.6375h10.725c0.9006,0,1.6375,-0.7369,1.6375,-1.6375v-6.725C32,18.7369,31.2631,18,30.3625,18zM30.5,26.5H19.5v-7h11V26.5z" fill="#9B59B6"/>
      <rect x="23" y="26.6" width="4" height="2" fill="#9B59B6"/>
      <path d="M30.025,29h-10.05c-0.5385,0,-0.975,0.4365,-0.975,0.975v1.05c0,0.5385,0.4365,0.975,0.975,0.975h10.05c0.5385,0,0.975,-0.4365,0.975,-0.975v-1.05C31,29.4365,30.5635,29,30.025,29zM24.9,31h-3.7c-0.275,0,-0.5,-0.225,-0.5,-0.5s0.225,-0.5,0.5,-0.5h3.7c0.275,0,0.5,0.225,0.5,0.5S25.175,31,24.9,31zM28.15,31.2c-0.5799,0,-1.05,-0.291,-1.05,-0.65s0.4701,-0.65,1.05,-0.65s1.05,0.291,1.05,0.65C29.2,31.0741,28.7299,31.2,28.15,31.2z" fill="#9B59B6"/>
    </g>
  </g>
</svg>
