<?xml version="1.0" encoding="UTF-8"?>
<!DOCTYPE svg PUBLIC "-//W3C//DTD SVG 1.1//EN" "http://www.w3.org/Graphics/SVG/1.1/DTD/svg11.dtd">
<svg version="1.1" id="Layer_1" xmlns="http://www.w3.org/2000/svg" xmlns:xlink="http://www.w3.org/1999/xlink" x="0px" y="0px" width="32px" height="32px" viewBox="0 0 32 32" enable-background="new 0 0 32 32" xml:space="preserve">
  <g id="icon">
    <path d="M26.6,30.5H5.4c-0.6351,0,-0.9,-0.2594,-0.9,-0.9V2.4c0,-0.6407,0.2649,-0.9,0.9,-0.9c0,0,14.6709,0,14.9084,0s0.5495,0.0496,0.8998,0.3998C21.5074,2.199,25.6164,6.3164,27.1,7.8c0.2527,0.2527,0.4,0.55,0.4,1c0,0.3125,0,20.8,0,20.8C27.5,30.2406,27.2351,30.5,26.6,30.5z" fill-rule="evenodd" fill="none" stroke="#FFFFFF" stroke-width="1" stroke-miterlimit="1"/>
    <path d="M27.2,9h-5.936c-0.145,0,-0.2755,-0.0617,-0.3668,-0.1603c-0.462,-0.232,-0.8888,-0.6975,-0.8888,-1.2729V1.8h1v5.7667c0,0.2028,0.3584,0.4218,0.4944,0.4333H27.2V9z" fill="#FFFFFF"/>
    <path d="M16.6394,10.1225c0.3484,0.0651,0.6865,0.1545,1.0126,0.2663c-2.2099,6.5657,-2.2499,6.9957,-2.2499,6.9957s-0.3436,0.0162,-7.3021,-0.4692c0.018,-0.2904,0.0531,-0.5829,0.106,-0.8762C8.9286,12.0364,12.7044,9.3874,16.6394,10.1225z" fill-rule="evenodd" fill="#FFFFFF"/>
    <path d="M22.3273,24.0524c1.2642,-1.5983,1.8694,-3.7224,1.4916,-5.9013c-0.4639,-2.6753,-2.2924,-4.7571,-4.6289,-5.6354c-0.8665,3.1004,-2.3172,7.122,-2.3172,7.122s-2.9318,-0.1941,-7.242,-0.569c-0.0458,1.9446,0.6607,3.9041,2.1197,5.3882c2.829,2.8776,7.4157,2.8776,10.2447,0C22.116,24.3338,22.2461,24.1844,22.3273,24.0524z" fill="#FFFFFF"/>
  </g>
</svg>
