<?xml version="1.0" encoding="UTF-8"?>
<!DOCTYPE svg PUBLIC "-//W3C//DTD SVG 1.1//EN" "http://www.w3.org/Graphics/SVG/1.1/DTD/svg11.dtd">
<svg version="1.1" id="Layer_1" xmlns="http://www.w3.org/2000/svg" xmlns:xlink="http://www.w3.org/1999/xlink" x="0px" y="0px" width="32px" height="32px" viewBox="0 0 32 32" enable-background="new 0 0 32 32" xml:space="preserve">
  <g id="icon">
    <path d="M30,29.5H3c-0.2761,0,-0.5,-0.2239,-0.5,-0.5V7.5h28v21.5C30.5,29.2761,30.2761,29.5,30,29.5z" fill="none" stroke="#FFFFFF" stroke-width="1" stroke-miterlimit="1"/>
    <path d="M31,8H2V3.4c0,-0.7732,0.6268,-1.4,1.4,-1.4h26.2c0.7732,0,1.4,0.6268,1.4,1.4V8z" fill="#FFFFFF"/>
    <path d="M5.7569,21.3991c-0.0301,-0.0043,-0.057,-0.0213,-0.0737,-0.0464l-0.6634,-1.003c-0.021,-0.0317,-0.0186,-0.0635,-0.0153,-0.0797c0.0033,-0.0162,0.0135,-0.0463,0.0453,-0.0674l8.4614,-5.8468c0.1061,-0.0721,0.2496,-0.0512,0.3307,0.0481l2.7761,3.4158l7.7823,-5.8192l-0.7548,-1.0511c-0.1014,-0.1412,-0.017,-0.3395,0.155,-0.3644l3.9341,-0.5696c0.1807,-0.0262,0.3192,0.1572,0.2447,0.3239l-1.6669,3.7271c-0.073,0.1632,-0.2954,0.1857,-0.3997,0.0406l-0.6874,-0.9422l-8.6611,6.4265c-0.1061,0.0613,-0.2532,0.0425,-0.3366,-0.0582l-2.818,-3.412L5.825,21.3862C5.8085,21.3971,5.7819,21.4027,5.7569,21.3991z" fill="#FFFFFF"/>
    <path d="M8,27H5v-3.5583c0,-0.2439,0.1977,-0.4417,0.4417,-0.4417h2.1167c0.2439,0,0.4417,0.1977,0.4417,0.4417V27zM12,27H9v-5.5583c0,-0.2439,0.1977,-0.4417,0.4417,-0.4417h2.1167c0.2439,0,0.4417,0.1977,0.4417,0.4417V27zM16,27h-3v-4.5583c0,-0.2439,0.1977,-0.4417,0.4417,-0.4417h2.1167c0.2439,0,0.4417,0.1977,0.4417,0.4417V27zM20,27h-3v-5.5583c0,-0.2439,0.1977,-0.4417,0.4417,-0.4417h2.1167c0.2439,0,0.4417,0.1977,0.4417,0.4417V27zM24,27h-3v-8.5583c0,-0.2439,0.1977,-0.4417,0.4417,-0.4417h2.1167c0.2439,0,0.4417,0.1977,0.4417,0.4417V27zM28,27h-3V16.4417c0,-0.2439,0.1977,-0.4417,0.4417,-0.4417h2.1167c0.2439,0,0.4417,0.1977,0.4417,0.4417V27z" fill="#FFFFFF"/>
  </g>
</svg>
