<?xml version="1.0" encoding="UTF-8"?>
<!DOCTYPE svg PUBLIC "-//W3C//DTD SVG 1.1//EN" "http://www.w3.org/Graphics/SVG/1.1/DTD/svg11.dtd">
<svg version="1.1" id="Layer_1" xmlns="http://www.w3.org/2000/svg" xmlns:xlink="http://www.w3.org/1999/xlink" x="0px" y="0px" width="32px" height="32px" viewBox="0 0 32 32" enable-background="new 0 0 32 32" xml:space="preserve">
  <g id="main">
    <clipPath id="clip_mask">
      <path d="M14,29.0476v-1.7984c0,-1.3352,1.1461,-2.4453,3.2335,-3.1394c-0.0338,-0.1555,-0.0522,-0.3136,-0.0522,-0.4744v-1.7984c0,-2.5189,4.0195,-3.8369,7.9901,-3.8369c1.9565,0,3.8115,0.3325,5.2234,0.9361c0.7063,0.302,1.2252,0.6374,1.6052,0.9771V0H0v32h16.5803C14.9164,31.2676,14,30.2229,14,29.0476z" fill-rule="evenodd"/>
    </clipPath>
    <g id="icon" clip-path="url(#clip_mask)">
      <g id="transformed_icon" transform="translate(-1 -1)">
        <path d="M30,29.5H3c-0.2761,0,-0.5,-0.2239,-0.5,-0.5V7.5h28v21.5C30.5,29.2761,30.2761,29.5,30,29.5z" fill="none" stroke="#FFFFFF" stroke-width="1" stroke-miterlimit="1"/>
        <path d="M31,8H2V3.4c0,-0.7732,0.6268,-1.4,1.4,-1.4h26.2c0.7732,0,1.4,0.6268,1.4,1.4V8z" fill="#FFFFFF"/>
        <path d="M5.7569,21.3991c-0.0301,-0.0043,-0.057,-0.0213,-0.0737,-0.0464l-0.6634,-1.003c-0.021,-0.0317,-0.0186,-0.0635,-0.0153,-0.0797c0.0033,-0.0162,0.0135,-0.0463,0.0453,-0.0674l8.4614,-5.8468c0.1061,-0.0721,0.2496,-0.0512,0.3307,0.0481l2.7761,3.4158l7.7823,-5.8192l-0.7548,-1.0511c-0.1014,-0.1412,-0.017,-0.3395,0.155,-0.3644l3.9341,-0.5696c0.1807,-0.0262,0.3192,0.1572,0.2447,0.3239l-1.6669,3.7271c-0.073,0.1632,-0.2954,0.1857,-0.3997,0.0406l-0.6874,-0.9422l-8.6611,6.4265c-0.1061,0.0613,-0.2532,0.0425,-0.3366,-0.0582l-2.818,-3.412L5.825,21.3862C5.8085,21.3971,5.7819,21.4027,5.7569,21.3991z" fill="#FFFFFF"/>
        <path d="M8,27H5v-3.5583c0,-0.2439,0.1977,-0.4417,0.4417,-0.4417h2.1167c0.2439,0,0.4417,0.1977,0.4417,0.4417V27zM12,27H9v-5.5583c0,-0.2439,0.1977,-0.4417,0.4417,-0.4417h2.1167c0.2439,0,0.4417,0.1977,0.4417,0.4417V27zM16,27h-3v-4.5583c0,-0.2439,0.1977,-0.4417,0.4417,-0.4417h2.1167c0.2439,0,0.4417,0.1977,0.4417,0.4417V27zM20,27h-3v-5.5583c0,-0.2439,0.1977,-0.4417,0.4417,-0.4417h2.1167c0.2439,0,0.4417,0.1977,0.4417,0.4417V27zM24,27h-3v-8.5583c0,-0.2439,0.1977,-0.4417,0.4417,-0.4417h2.1167c0.2439,0,0.4417,0.1977,0.4417,0.4417V27zM28,27h-3V16.4417c0,-0.2439,0.1977,-0.4417,0.4417,-0.4417h2.1167c0.2439,0,0.4417,0.1977,0.4417,0.4417V27z" fill="#FFFFFF"/>
      </g>
    </g>
    <g id="overlay">
      <g>
        <path d="M28.7328,26.8669c-1.1324,0.2854,-2.4321,0.4621,-3.7842,0.4621c-3.4487,0,-6.4201,-1.1457,-7.2198,-2.3282C16.083,25.513,15,26.3179,15,27.2491c0,0.0549,0,1.5878,0,1.7984c0,1.6041,3.2248,2.962,6.998,2.962c3.7733,0,6.8207,-1.358,6.8207,-2.962c0,-0.2561,0,-1.6769,0,-1.7202C28.8187,27.1707,28.7888,27.017,28.7328,26.8669zM21.812,29.9384c-3.7217,0.0609,-6.7956,-1.1482,-6.6877,-2.7636c0.4655,1.2018,3.1565,2.0982,6.4231,2.0982c3.5939,0,6.9781,-0.8286,6.9781,-2.2137c0,-0.0361,-0.0029,-0.0719,-0.0075,-0.1076c0.0579,0.1371,0.0823,0.2779,0.0884,0.4211C28.6717,28.8964,25.5303,29.8775,21.812,29.9384z" fill-rule="evenodd" fill="#FFFFFF"/>
      </g>
      <g>
        <path d="M25.1714,19c-3.7758,0,-6.9902,1.2317,-6.9902,2.8368c0,0.0549,0,1.5878,0,1.7984c0,1.6041,3.2248,2.962,6.998,2.962c3.7733,0,6.8207,-1.358,6.8207,-2.962c0,-0.2561,0,-1.6769,0,-1.7202C32,20.3099,28.9473,19,25.1714,19zM24.9921,24.5253c-3.7217,0.0609,-6.7956,-1.1482,-6.6877,-2.7636c0.4655,1.2018,3.1565,2.0982,6.4231,2.0982c3.5939,0,6.9781,-0.8286,6.9781,-2.2137c0,-0.0361,-0.0029,-0.0719,-0.0075,-0.1076c0.0579,0.1372,0.0823,0.2779,0.0884,0.4211C31.8518,23.4833,28.7104,24.4644,24.9921,24.5253z" fill-rule="evenodd" fill="#FFFFFF"/>
      </g>
    </g>
  </g>
</svg>
