<?xml version="1.0" encoding="UTF-8"?>
<!DOCTYPE svg PUBLIC "-//W3C//DTD SVG 1.1//EN" "http://www.w3.org/Graphics/SVG/1.1/DTD/svg11.dtd">
<svg version="1.1" id="Layer_1" xmlns="http://www.w3.org/2000/svg" xmlns:xlink="http://www.w3.org/1999/xlink" x="0px" y="0px" width="32px" height="32px" viewBox="0 0 32 32" enable-background="new 0 0 32 32" xml:space="preserve">
  <g id="icon">
    <path d="M30.979,12.039c-0.109,-0.908,-0.742,-0.903,-1.364,-0.912c-0.166,-0.002,-0.126,-0.001,-0.291,-0.002c-1.255,-0.006,-1.446,1.946,-1.533,1.452c-1.585,-7.833,-6.497,-7.588,-11.805,-7.574c-5.308,-0.014,-10.221,-0.259,-11.805,7.574c-0.087,0.494,-0.278,-1.458,-1.533,-1.452c-0.166,0.001,-0.126,0,-0.291,0.002c-0.622,0.009,-1.255,0.004,-1.364,0.912c-0.111,0.924,0.215,1.464,1.06,1.74c0.571,0.187,0.734,0.364,1.311,0.547c-0.684,3.22,-0.541,6.771,0.237,9.269c0.284,0.585,0.474,1.098,0.451,1.731c-0.017,0.477,-0.023,1.155,-0.049,1.632c-0.044,0.788,0.039,1.522,0.807,1.878c0.764,0.355,2.821,0.094,3.137,-0.406c0.16,-0.254,0.231,-0.599,0.266,-0.913c0.044,-0.403,0.011,-1.015,0.011,-1.502c2.47,0,4.917,0,7.369,0c0.263,0,0.526,0,0.789,0c2.452,0,4.9,0,7.369,0c0,0.487,-0.033,1.099,0.011,1.502c0.034,0.314,0.106,0.659,0.266,0.913c0.315,0.5,2.472,0.76,3.237,0.406c0.768,-0.356,0.85,-1.09,0.807,-1.878c-0.027,-0.477,-0.032,-1.154,-0.049,-1.632c-0.023,-0.633,0.167,-1.147,0.451,-1.731c0.778,-2.497,0.821,-6.049,0.137,-9.269c0.577,-0.183,0.74,-0.36,1.311,-0.547C30.763,13.503,31.09,12.964,30.979,12.039zM7.872,21.797c-1.634,0,-2.959,-0.804,-2.959,-1.796c0,-0.992,-0.155,-1.796,1.48,-1.796c1.634,0,4.439,1.182,4.439,2.174C10.831,21.371,9.507,21.797,7.872,21.797zM15.986,14.589c-1.953,0,-9.895,0.173,-9.895,-0.864c0.257,-4.02,2.141,-6.961,7.11,-6.914c1.659,-0.1,2.406,-0.107,2.785,-0.087c0.379,-0.021,1.126,-0.013,2.785,0.087c4.969,-0.047,6.853,2.893,7.11,6.914C25.881,14.762,17.939,14.589,15.986,14.589zM27.06,20.001c0,0.992,-1.325,1.796,-2.959,1.796s-2.959,-0.426,-2.959,-1.418c0,-0.992,2.805,-2.174,4.439,-2.174C27.214,18.205,27.06,19.009,27.06,20.001z" fill="#FFFFFF"/>
  </g>
</svg>
