<?xml version="1.0" encoding="UTF-8"?>
<!DOCTYPE svg PUBLIC "-//W3C//DTD SVG 1.1//EN" "http://www.w3.org/Graphics/SVG/1.1/DTD/svg11.dtd">
<svg version="1.1" id="Layer_1" xmlns="http://www.w3.org/2000/svg" xmlns:xlink="http://www.w3.org/1999/xlink" x="0px" y="0px" width="32px" height="32px" viewBox="0 0 32 32" enable-background="new 0 0 32 32" xml:space="preserve">
  <g id="icon">
    <path d="M21.909,14.318c-0.334,0.006,-0.596,0.257,-0.568,0.588c0.028,0.326,0.244,1.318,0.323,1.637c0.017,0.071,0.14,0.182,0.174,0.167c0.289,-0.121,0.603,-0.225,0.836,-0.427c0.088,-0.077,-0.145,-1.067,-0.165,-1.276c-0.008,-0.082,-0.028,-0.163,-0.046,-0.243C22.391,14.444,22.165,14.344,21.909,14.318zM31.512,21.924c0.499,0.002,0.551,-0.025,0.439,-0.528c-0.201,-0.9,-0.542,-2.07,-0.823,-2.944c-0.11,-0.343,-0.365,-0.736,-0.657,-0.892c-0.596,-0.319,-1.25,-0.543,-1.901,-0.718c-1.427,-0.383,-2.89,-0.506,-4.361,-0.551c-0.532,-0.016,-1.063,-0.07,-1.496,0.358c-0.039,0.039,-0.099,0.057,-0.151,0.079c-0.365,0.153,-0.455,0.217,-0.834,0.307c-0.263,0.063,-0.824,0.096,-1.105,0.096c-2.879,0.001,-5.757,0.008,-8.636,0.011c-0.084,0,-0.168,-0.025,-0.253,-0.038c-0.009,-0.036,-0.017,-0.072,-0.026,-0.108c0.54,-0.33,1.081,-0.66,1.62,-0.991c0.983,-0.604,1.972,-1.199,2.947,-1.818c0.304,-0.193,0.35,-0.583,0.155,-0.872c-0.19,-0.283,-0.499,-0.338,-0.806,-0.15c-1.927,1.185,-3.852,2.373,-5.786,3.546c-0.185,0.112,-0.419,0.17,-0.635,0.185c-1.779,0.126,-3.555,0.255,-5.258,0.892c-1.235,0.462,-2.354,1.106,-3.127,2.254c-0.268,0.399,-0.567,1.145,-0.754,1.599c-0.08,0.194,-0.024,0.333,0.235,0.329c0.97,-0.014,1.941,-0.012,2.912,-0.005c0.247,0.002,0.4,-0.031,0.563,-0.244c0.772,-1.009,1.934,-1.822,3.204,-1.844c0.99,-0.017,1.88,0.333,2.576,1.024c0.454,0.451,0.912,0.985,1.123,1.572c0.213,0.593,0.148,1.162,0.157,1.817c0.008,0.581,0.656,0.645,0.965,0.645c3.24,0.001,6.031,-0.017,9.37,-0.013c0.638,0.001,0.665,0.005,0.627,-0.666c-0.052,-0.93,0.166,-1.928,0.63,-2.699c0.668,-1.112,1.704,-1.569,2.948,-1.668c1.316,-0.105,2.539,0.706,3.362,1.775c0.2,0.26,0.529,0.287,0.845,0.273C30.224,21.909,30.868,21.922,31.512,21.924zM3.124,20.285c-0.39,0.391,-0.916,0.495,-1.174,0.233c-0.258,-0.262,-0.152,-0.791,0.239,-1.182c0.39,-0.391,0.916,-0.495,1.174,-0.233C3.621,19.365,3.514,19.894,3.124,20.285zM29.966,18.453c0.614,0.017,0.694,0.32,0.835,0.894c0.141,0.574,0.339,1.2,-0.324,1.184c-0.664,-0.017,-0.694,-0.32,-0.835,-0.894C29.5,19.063,29.352,18.437,29.966,18.453zM3.261,22.675c-0.03,0.485,-0.055,1.238,-0.057,1.723c-0.001,0.283,-0.075,0.402,-0.37,0.396c-0.812,-0.017,-1.625,-0.009,-2.437,0.008c-0.288,0.006,-0.41,-0.084,-0.395,-0.407c0.022,-0.462,0.01,-1.194,0.002,-1.657c-0.005,-0.256,0.091,-0.366,0.341,-0.359c0.44,0.012,0.88,0.003,1.32,0.003c0,-0.001,0,-0.003,0,-0.004c0.44,0,0.88,0.001,1.32,0C3.175,22.377,3.275,22.448,3.261,22.675zM31.952,22.636c-0.206,1.08,-1.02,2.001,-2.066,2.14c-0.246,0.032,-0.351,-0.039,-0.353,-0.316c-0.005,-0.519,-0.032,-1.306,-0.062,-1.825c-0.012,-0.204,0.071,-0.282,0.252,-0.281c0.315,0.001,0.63,0,0.944,0c0,-0.005,0,-0.01,0,-0.015c0.303,0,0.74,0.012,1.043,-0.004C31.937,22.323,31.991,22.43,31.952,22.636zM7.007,20.546c-1.856,0.014,-3.112,1.498,-3.155,3.123c-0.004,1.695,1.44,3.183,3.111,3.166c1.684,-0.017,3.12,-1.284,3.129,-3.154C10.101,21.894,8.582,20.534,7.007,20.546zM6.97,24.699c-0.549,0,-0.994,-0.45,-0.994,-1.006s0.445,-1.006,0.994,-1.006c0.549,0,0.994,0.45,0.994,1.006S7.519,24.699,6.97,24.699zM25.594,20.546c-1.856,0.014,-3.112,1.498,-3.155,3.123c-0.004,1.695,1.44,3.183,3.111,3.166c1.684,-0.017,3.12,-1.284,3.129,-3.154C28.688,21.894,27.169,20.534,25.594,20.546zM25.56,24.699c-0.549,0,-0.994,-0.45,-0.994,-1.006s0.445,-1.006,0.994,-1.006c0.549,0,0.994,0.45,0.994,1.006S26.109,24.699,25.56,24.699z" fill="#FFFFFF"/>
  </g>
</svg>
