<?xml version="1.0" encoding="UTF-8"?>
<!DOCTYPE svg PUBLIC "-//W3C//DTD SVG 1.1//EN" "http://www.w3.org/Graphics/SVG/1.1/DTD/svg11.dtd">
<svg version="1.1" id="Layer_1" xmlns="http://www.w3.org/2000/svg" xmlns:xlink="http://www.w3.org/1999/xlink" x="0px" y="0px" width="32px" height="32px" viewBox="0 0 32 32" enable-background="new 0 0 32 32" xml:space="preserve">
  <g id="main">
    <clipPath id="clip_mask">
      <path d="M20.9262,32C18.5189,30.6,16.9,27.9878,16.9,25c0,-4.4735,3.6265,-8.1,8.1,-8.1c2.9878,0,5.6,1.6189,7,4.0262V0L0,0l0,32H20.9262z" fill-rule="evenodd"/>
    </clipPath>
    <g id="icon" clip-path="url(#clip_mask)">
      <path d="M4.908,20.087c-1.504,0,-2.723,1.273,-2.723,2.844c0,1.571,1.219,2.844,2.723,2.844c1.504,0,2.723,-1.274,2.723,-2.844C7.631,21.36,6.412,20.087,4.908,20.087zM4.908,24.027c-0.58,0,-1.049,-0.491,-1.049,-1.096c0,-0.605,0.47,-1.096,1.049,-1.096c0.58,0,1.049,0.491,1.049,1.096C5.957,23.537,5.487,24.027,4.908,24.027zM25.59,20.087c-1.504,0,-2.723,1.273,-2.723,2.844c0,1.571,1.219,2.844,2.723,2.844c1.504,0,2.723,-1.274,2.723,-2.844C28.313,21.36,27.094,20.087,25.59,20.087zM25.59,24.027c-0.58,0,-1.049,-0.491,-1.049,-1.096c0,-0.605,0.47,-1.096,1.049,-1.096c0.58,0,1.049,0.491,1.049,1.096C26.639,23.537,26.17,24.027,25.59,24.027z" fill="#FFFFFF"/>
      <g>
        <path d="M9,23v-4v-1.3V8.602c0,-0.394,-0.326,-0.602,-0.704,-0.602H2.765c-0.378,0,-0.399,0.182,-0.684,0.658c-0.285,0.475,-0.752,1.831,-1.95,4.267C0.043,13.108,0,13.533,0,13.853c0,2.475,0,8.457,0,8.457c0,0.394,0.392,0.69,0.77,0.69h0.432c-0.001,0,-0.004,-0.003,-0.004,-0.033c0,-2.116,1.647,-3.904,3.678,-3.904c1.82,0,3.33,1.389,3.625,3.201V23H9zM7.5,14H1.2v-1.018L2.691,9.4H7.5V14z" fill="#FFFFFF"/>
        <path d="M29.709,2H11.575C10.824,2,10,2.512,10,3.297V17.7v1.3v4h11.95c0,-2.178,1.648,-3.95,3.681,-3.95c2.033,0,3.681,1.772,3.681,3.95H31v-4V3.297C31,2.512,30.46,2,29.709,2z" fill="#FFFFFF"/>
      </g>
    </g>
    <g id="overlay">
      <path d="M25.0072,18.0144c-3.862,0,-6.9928,3.1308,-6.9928,6.9928c0,3.862,3.1308,6.9928,6.9928,6.9928S32,28.8692,32,25.0072C32,21.1452,28.8692,18.0144,25.0072,18.0144zM25.0072,30.9317c-3.272,0,-5.9245,-2.6525,-5.9245,-5.9245c0,-3.272,2.6525,-5.9245,5.9245,-5.9245s5.9245,2.6525,5.9245,5.9245C30.9317,28.2792,28.2792,30.9317,25.0072,30.9317z" fill-rule="evenodd" fill="#FFFFFF"/>
      <path d="M23.8619,25.0174c-0.0024,0.7312,0.0646,1.0655,0.666,1.0684c0.6014,0.0029,0.6104,-0.4072,0.6128,-1.1383c0.0024,-0.7312,-0.2011,-5.3477,-0.5908,-5.3497C24.1603,19.596,23.8643,24.2862,23.8619,25.0174z" fill-rule="evenodd" fill="#FFFFFF"/>
      <path d="M25.3505,25.6061c-0.5171,-0.5216,-0.7824,-0.6867,-1.2092,-0.2631c-0.4268,0.4236,-0.3121,0.5789,0.205,1.1005c0.5171,0.5216,3.5598,3.1085,3.8363,2.834C28.4591,29.003,25.8676,26.1277,25.3505,25.6061z" fill-rule="evenodd" fill="#FFFFFF"/>
    </g>
  </g>
</svg>
