<?xml version="1.0" encoding="UTF-8"?>
<!DOCTYPE svg PUBLIC "-//W3C//DTD SVG 1.1//EN" "http://www.w3.org/Graphics/SVG/1.1/DTD/svg11.dtd">
<svg version="1.1" id="Layer_1" xmlns="http://www.w3.org/2000/svg" xmlns:xlink="http://www.w3.org/1999/xlink" x="0px" y="0px" width="32px" height="32px" viewBox="0 0 32 32" enable-background="new 0 0 32 32" xml:space="preserve">
  <g id="icon">
    <path d="M6,19.59V21h0.71c0.107,0.18,0.216,0.357,0.333,0.53c-0.438,0.154,-0.844,0.295,-1.221,0.426c-0.017,0.006,-0.033,0.012,-0.051,0.018c-0.442,-0.104,-0.772,-0.5,-0.772,-0.973v-5.369C5.095,16.805,5.422,18.227,6,19.59zM5,6v8.015c0.072,-1.02,0.306,-2.2,1,-3.183V7h24l0.001,14H16.314c-0.107,0.181,-0.218,0.36,-0.335,0.533c0.438,0.154,0.845,0.295,1.222,0.426c0.04,0.014,0.078,0.027,0.117,0.041H30c0.551,0,1,-0.449,1,-1V6H5z" fill="#FFFFFF"/>
    <path d="M29.6,1H6.4c-0.773,0,-1.4,0.627,-1.4,1.4v4.6h26V2.4C31,1.627,30.373,1,29.6,1z" fill="#FFFFFF"/>
    <path d="M21.934,27.217c-0.528,-2.666,-1.468,-2.711,-6.605,-4.525c-0.75,-0.282,-0.962,-0.687,-0.906,-1.266c1.449,-1.732,2.322,-4.535,2.322,-6.494c0,-3.034,-1.035,-4.956,-5.276,-4.956c-0.017,0,0.006,0,0,0c-4.24,0,-5.19,1.922,-5.19,4.956c0,1.959,0.87,4.756,2.319,6.489c0.056,0.579,-0.157,0.987,-0.907,1.269c-5.137,1.815,-6.078,1.86,-6.606,4.526c-0.159,1.072,-0.185,1.521,0.238,2.708c0.476,1.337,7.203,1.162,10.147,1.162c0.012,0,-0.02,0,0,0c2.945,0,9.75,0.175,10.226,-1.161C22.118,28.738,22.092,28.289,21.934,27.217z" fill-rule="evenodd" fill="#FFFFFF"/>
  </g>
</svg>
